<svg width="450" height="140" viewBox="0 0 450 140" fill="none" xmlns="http://www.w3.org/2000/svg">
<g clip-path="url(#clip0_939_3519)">
<path d="M123.693 116.641C121.855 118.123 119.508 118.844 117.143 118.654C114.67 118.414 111.385 117.024 109.688 114.833L113.403 99.4316L122.161 100.04L123.693 116.641Z" fill="#0A2C37"/>
<path d="M117.308 119.18H117.096C114.644 118.94 111.152 117.581 109.279 115.16C109.234 115.107 109.201 115.046 109.181 114.98C109.161 114.914 109.155 114.844 109.162 114.776C109.17 114.707 109.192 114.641 109.227 114.581C109.261 114.521 109.308 114.468 109.363 114.427C109.419 114.385 109.482 114.355 109.55 114.338C109.618 114.321 109.688 114.318 109.757 114.329C109.826 114.339 109.892 114.364 109.952 114.4C110.011 114.437 110.062 114.485 110.102 114.542C111.711 116.621 114.887 117.939 117.194 118.164C119.421 118.337 121.629 117.656 123.361 116.263C123.466 116.176 123.602 116.133 123.739 116.145C123.875 116.156 124.002 116.221 124.09 116.325C124.179 116.428 124.222 116.562 124.21 116.698C124.199 116.833 124.133 116.958 124.028 117.045C122.142 118.569 119.741 119.332 117.308 119.18V119.18Z" fill="#0A2C37"/>
<path d="M100.671 77.1875C100.671 77.1875 98.86 78.6893 95.3318 89.1406C94.0385 92.9666 91.6173 96.8028 88.0891 99.0402C88.0891 99.0402 86.0198 107.724 96.8838 110.789C105.637 113.272 115.968 103.086 115.968 103.086L125.674 94.2334C127.298 85.0387 126.527 81.7389 126.527 81.7389L115.11 74.5312L100.671 77.1875Z" fill="#034A61"/>
<path d="M82.6983 113.219C76.1954 107.702 71.7567 106.992 65.1813 107.391C59.0541 107.83 52.896 107.225 46.9763 105.603C37.0641 102.778 29.7749 97.0417 27.4727 89.8903C23.6393 77.9627 28.5954 68.768 29.1023 64.3495C29.6093 59.9309 26.1018 57.3615 23.5255 57.954C20.8301 58.5721 19.9817 61.4174 20.5042 63.5373C20.7444 64.5389 21.3094 65.4358 22.1131 66.0913C22.7236 66.6022 23.003 67.4041 21.7303 67.6238C20.618 67.8077 18.8281 67.6749 17.2243 65.7236C13.7116 61.4174 15.6878 54.1842 22.5374 52.3248C27.7107 50.9303 32.8841 53.9952 34.7879 58.3167C36.433 62.1172 35.6208 67.8179 35.0207 70.6887C34.0222 75.4597 32.5633 86.8509 40.9649 92.9807C42.9773 94.4467 49.3457 97.4912 65.5693 97.8539C73.7846 98.0327 80.0858 98.8398 85.1039 102.814L82.6983 113.219Z" fill="#034A61"/>
<path d="M62.3357 107.576C56.8312 107.75 42.5217 105.563 35.1704 100.082C22.9406 90.9541 27.1361 75.1035 27.1361 75.1035C26.6498 77.8159 29.5521 101.012 52.8012 101.758L62.3357 107.576Z" fill="#0A2C37"/>
<path d="M29.3196 64.7842C31.7925 58.6544 25.4499 54.5321 21.4199 57.0657C18.4297 58.9455 17.7623 63.834 22.7753 67.2821C22.7753 67.2821 18.0675 61.9389 22.258 58.6952C24.0531 57.3109 25.8793 57.9443 26.8674 58.3428C29.9094 59.5279 29.3196 64.7842 29.3196 64.7842Z" fill="#0A2C37"/>
<path d="M82.6623 113.73C82.5509 113.724 82.4449 113.681 82.3623 113.607C76.0404 108.243 71.7983 107.477 65.2177 107.922C59.0329 108.357 52.8182 107.745 46.842 106.113C36.5625 103.186 29.325 97.3374 26.9866 90.0634C24.043 80.9045 26.2054 73.3087 27.6333 68.2822C28.0489 66.9768 28.3687 65.6435 28.5904 64.2928C28.7255 63.4099 28.6422 62.5079 28.3476 61.6637C28.0531 60.8196 27.5559 60.0584 26.8987 59.4451C26.4738 59.0339 25.957 58.7272 25.3899 58.5497C24.8228 58.3723 24.2214 58.329 23.6343 58.4235C23.1905 58.5199 22.7717 58.7058 22.404 58.9695C22.0364 59.2332 21.7278 59.569 21.4977 59.9559C20.8803 60.9997 20.6949 62.2387 20.9804 63.4142C21.2023 64.3038 21.7062 65.1002 22.4185 65.6873C22.6633 65.8499 22.8561 66.078 22.9743 66.3449C23.0925 66.6117 23.1312 66.9064 23.0859 67.1942C22.9928 67.5262 22.6927 67.9502 21.7926 68.0983C20.7062 68.272 18.6213 68.2363 16.8003 66.0142C15.9271 64.9201 15.3447 63.6277 15.1062 62.2548C14.8677 60.8818 14.9805 59.4717 15.4345 58.1528C16.4381 55.0879 18.9783 52.7636 22.403 51.834C28.0937 50.3015 33.3964 53.821 35.264 58.117C37.0385 62.2035 36.04 68.3333 35.5278 70.7903C34.3328 76.491 33.4947 86.8964 41.2754 92.5664C42.6774 93.5881 48.5854 96.9646 65.5902 97.3426C74.1263 97.5316 80.4222 98.4459 85.4404 102.41C85.4937 102.452 85.5381 102.504 85.571 102.564C85.6039 102.623 85.6247 102.688 85.6321 102.755C85.6395 102.822 85.6335 102.89 85.6144 102.955C85.5953 103.02 85.5634 103.08 85.5206 103.133C85.4778 103.185 85.4249 103.229 85.3649 103.262C85.305 103.294 85.2392 103.315 85.1712 103.322C85.1032 103.329 85.0344 103.323 84.9688 103.304C84.9031 103.286 84.8419 103.254 84.7886 103.212C79.998 99.4216 73.8831 98.5481 65.5644 98.3642C48.7406 97.9862 42.5481 94.7629 40.6702 93.3888C32.4238 87.3765 33.2826 76.5319 34.5242 70.586C35.0415 68.2363 35.9831 62.3517 34.3224 58.5205C32.6618 54.6894 27.8092 51.4253 22.6772 52.8198C19.5732 53.6525 17.3124 55.711 16.4175 58.4388C16.0154 59.6028 15.9156 60.8477 16.1271 62.0596C16.3386 63.2716 16.8547 64.4117 17.628 65.3757C19.0507 67.1074 20.5975 67.2657 21.6477 67.092C21.8169 67.0851 21.9797 67.0262 22.1133 66.9235C22.0587 66.7404 21.9418 66.5816 21.7822 66.4739C20.8982 65.7479 20.2728 64.7616 19.9974 63.6593C19.6422 62.2205 19.8686 60.7015 20.6286 59.4247C20.9346 58.9283 21.3388 58.4979 21.817 58.1591C22.2952 57.8204 22.8376 57.5802 23.4118 57.4529C24.1587 57.3144 24.9283 57.3534 25.6569 57.5666C26.3855 57.7797 27.0523 58.161 27.6023 58.6789C28.3822 59.4013 28.9731 60.2997 29.3245 61.2969C29.6759 62.2942 29.7772 63.3607 29.6199 64.4051C29.3927 65.8146 29.0625 67.2059 28.6318 68.5683C27.2349 73.4721 25.1242 80.8892 27.9747 89.7569C30.2045 96.6989 37.1885 102.308 47.1162 105.138C52.9828 106.731 59.0824 107.32 65.1505 106.879C71.8759 106.45 76.4801 107.252 83.0348 112.815C83.0864 112.859 83.1289 112.912 83.1597 112.972C83.1905 113.032 83.209 113.097 83.2143 113.164C83.2196 113.231 83.2115 113.298 83.1905 113.362C83.1694 113.425 83.1359 113.484 83.0917 113.535C83.0409 113.599 82.9754 113.65 82.9007 113.684C82.8261 113.717 82.7443 113.733 82.6623 113.73Z" fill="#0A2C37"/>
<path d="M92.8284 107.007C82.4351 108.259 72.7506 118.245 57.841 110.496C39.3359 100.867 38.2288 84.4443 42.6055 72.0621C47.6443 57.7848 61.8607 49.0294 70.8003 43.0273C77.0083 38.8335 82.1817 34.0574 81.773 28.7245C81.4522 24.3417 76.9359 24.0045 75.7305 24.168C74.3622 24.3106 73.0968 24.9517 72.1815 25.9661C70.2415 28.3822 71.2452 31.6157 74.7682 32.0397C75.984 32.1827 75.7253 33.1737 74.9079 33.756C73.9922 34.4098 71.7263 34.6704 69.6363 33.2452C66.8737 31.3807 64.9285 26.6659 68.5447 22.2371C71.4728 18.6614 75.9322 17.9871 79.5795 18.83C83.5164 19.7341 87.9758 23.2332 88.0586 30.0679C88.1621 38.7824 80.2985 45.137 74.6079 49.7445C68.9172 54.3521 55.3526 65.0588 52.2486 75.3875C49.1446 85.7162 51.7882 95.6822 63.1127 101.771C70.9813 106.001 76.4289 99.7279 87.981 98.4202L92.8284 107.007Z" fill="#034A61"/>
<path d="M83.417 104.966C83.417 104.966 71.3475 115.392 54.3169 103.852C44.4254 97.1759 40.8661 84.9163 41.3162 76.3652C41.3162 76.3652 36.7326 91.9656 48.3416 103.75C59.9506 115.535 73.7221 115.351 84.8914 109.558L83.417 104.966Z" fill="#0A2C37"/>
<path d="M81.7 29.1446C82.4191 25.0581 79.5634 21.9626 75.0781 22.2333C71.4205 22.4529 68.4562 26.9532 71.1618 30.2735C71.1618 30.2735 69.6098 25.6404 75.3005 24.3327C80.3704 23.1579 81.7 29.1446 81.7 29.1446Z" fill="#0A2C37"/>
<path d="M87.6956 33.6504C84.7416 38.5849 78.0473 44.7811 73.0136 48.2189C67.6281 51.8967 51.2855 64.6007 51.4614 78.3059C51.4614 78.3059 51.4614 72.9373 58.5592 64.5752C65.4501 56.4021 76.4694 48.5713 79.1285 45.9457C87.68 37.5173 87.6956 33.6504 87.6956 33.6504Z" fill="#0A2C37"/>
<path d="M67.4943 113.863C64.0254 113.598 60.6527 112.611 57.5977 110.967C49.0047 106.477 43.4537 100.24 41.1464 92.46C38.7667 84.4709 40.3601 76.8648 42.119 71.8946C46.894 58.3682 59.5222 49.9295 68.7463 43.7997L70.5052 42.6146C78.1566 37.4656 81.5762 33.0726 81.2606 28.7919C81.242 28.2191 81.1016 27.6566 80.8484 27.1409C80.5953 26.6252 80.2352 26.1679 79.7914 25.7985C78.6405 24.9677 77.2226 24.5791 75.8027 24.7054C74.5652 24.8294 73.4185 25.4029 72.5849 26.3145C72.1828 26.7655 71.9103 27.3146 71.7956 27.9047C71.681 28.4949 71.7285 29.1046 71.9331 29.6705C72.3625 30.6922 73.4127 31.392 74.8146 31.5656C75.0864 31.5636 75.3518 31.6466 75.573 31.8025C75.7941 31.9585 75.9597 32.1795 76.0459 32.434C76.0906 32.7772 76.0314 33.1257 75.8759 33.4357C75.7203 33.7457 75.4752 34.0032 75.1716 34.1759C74.1369 34.9166 71.6278 35.2486 69.305 33.6651C68.4432 33.0599 67.7146 32.2884 67.1633 31.3972C66.612 30.506 66.2494 29.5138 66.0975 28.4803C65.8647 26.8968 66.0199 24.4704 68.1048 21.9163C70.7898 18.6267 75.1147 17.2832 79.6621 18.3406C83.7025 19.2754 88.4568 22.9073 88.5344 30.0894C88.643 39.0236 80.7278 45.4139 74.9543 50.1185L74.2559 50.6906C68.2186 55.574 55.6629 65.7341 52.7658 75.5316C49.4497 86.7031 53.2055 95.8621 63.3505 101.312C67.9755 103.8 71.8089 102.462 76.6615 100.766C79.7086 99.6983 83.1489 98.4928 87.448 97.9615C87.6032 97.9615 87.7273 98.9525 87.5825 98.9832C83.3869 99.494 80.0035 100.684 77.003 101.736C71.9124 103.519 67.8875 104.924 62.859 102.247C52.2484 96.5006 48.296 86.9279 51.7621 75.2455C54.7627 65.1467 67.484 54.8486 73.5989 49.9039L74.3128 49.3267C79.9311 44.7754 87.6187 38.5383 87.5204 30.0945C87.4428 23.5101 83.1179 20.1898 79.4448 19.3674C75.3061 18.407 71.3537 19.6177 68.9222 22.5957C67.0753 24.8637 66.9304 26.9887 67.1374 28.373C67.2726 29.2665 67.5871 30.1242 68.0623 30.8961C68.5376 31.668 69.1641 32.3385 69.9051 32.8682C71.7934 34.1402 73.811 33.9256 74.5611 33.379C74.9284 33.1185 75.0785 32.8171 75.0423 32.7201C75.006 32.623 74.9284 32.6128 74.6646 32.5822C72.885 32.3676 71.5347 31.4482 70.9605 30.0587C70.681 29.3212 70.6094 28.5226 70.7534 27.7481C70.8973 26.9736 71.2514 26.2521 71.7779 25.6606C72.7773 24.5439 74.1627 23.8353 75.6631 23.6735C77.3644 23.5127 79.0657 23.9804 80.4381 24.9863C80.9945 25.4403 81.4472 26.0055 81.7664 26.6447C82.0856 27.2839 82.2641 27.9826 82.2901 28.6949C82.7402 34.8247 76.1131 40.0554 71.0898 43.437C70.5207 43.8201 69.931 44.2186 69.3205 44.6221C60.2206 50.6906 47.758 59.022 43.0916 72.2317C41.3844 77.0589 39.8376 84.4402 42.1397 92.1535C44.3798 99.6779 49.7445 105.695 58.0788 110.032C68.11 115.253 75.632 112.305 82.9109 109.45C86.2788 108.132 89.4552 106.896 92.7765 106.487C93.0559 106.446 93.1852 107.463 92.9007 107.509C89.7139 107.892 86.5944 109.113 83.2938 110.41C78.5705 112.264 73.4592 114.277 67.4943 113.863Z" fill="#0A2C37"/>
<path d="M87.7208 98.2693C91.9112 95.6182 93.8616 90.9544 94.6945 88.4974C98.1658 78.2096 100.266 76.4677 100.463 76.3042C100.659 76.1408 101.347 76.8968 101.135 77.0807C101.047 77.1624 99.304 78.8685 95.962 88.8294C95.0877 91.4193 92.7338 96.4457 88.1347 99.2501C88.026 99.2807 87.4828 98.4175 87.7208 98.2693Z" fill="#0A2C37"/>
<path d="M116.073 102.583C115.995 106.374 117.826 119.558 129.42 119.047C137.697 118.684 141.696 108.616 141.438 99.6053C141.236 92.4027 138.24 86.2474 136.989 82.2733C135.333 77.0272 135.726 73.8857 138.659 70.0699C139.611 68.8235 139.415 67.9857 137.863 68.9052C131.929 72.435 131.298 78.9683 132.86 83.8159C135.333 91.5037 135.783 95.7026 135.571 99.2783C135.23 105.086 131.738 111.655 128.101 111.15C124.95 110.705 123.543 106.389 125.783 93.7309C127.407 84.5362 126.637 81.2363 126.637 81.2363L117.537 90.196L116.073 102.583Z" fill="#034A61"/>
<path d="M121.944 91.7385C122.737 87.3618 120.11 83.2364 116.077 82.5242C112.044 81.8119 108.131 84.7826 107.339 89.1593C106.546 93.536 109.173 97.6614 113.206 98.3736C117.239 99.0858 121.151 96.1152 121.944 91.7385Z" fill="white"/>
<path d="M113.92 98.8555C113.66 98.84 113.401 98.8093 113.144 98.7636C112.089 98.5668 111.086 98.1589 110.196 97.565C109.306 96.9712 108.549 96.204 107.971 95.3105C106.803 93.4442 106.384 91.2139 106.797 89.0581C107.624 84.4607 111.929 81.3958 116.166 82.1569C120.403 82.9181 123.32 87.3162 122.487 91.8931C122.117 94.0579 120.939 96.0075 119.187 97.3588C117.673 98.471 115.801 99.0028 113.92 98.8555ZM115.333 82.8312C111.763 82.586 108.437 85.324 107.728 89.2369C107.349 91.2057 107.731 93.2433 108.799 94.9478C109.282 95.744 109.932 96.4286 110.706 96.9555C111.479 97.4823 112.358 97.8392 113.284 98.0019C114.209 98.1645 115.159 98.1293 116.069 97.8985C116.98 97.6678 117.829 97.2468 118.561 96.6641C120.159 95.4285 121.232 93.649 121.572 91.6734V91.6734C122.327 87.5103 119.833 83.577 116.016 82.9027C115.789 82.8663 115.561 82.8425 115.333 82.8312Z" fill="#0A2C37"/>
<path d="M117.882 91.7401C118.396 88.9782 117.393 86.4819 115.643 86.1645C113.893 85.8471 112.058 87.8288 111.545 90.5908C111.031 93.3528 112.033 95.8491 113.783 96.1665C115.533 96.4838 117.368 94.5021 117.882 91.7401Z" fill="#0A2C37"/>
<path d="M116.705 89.3186C116.864 88.4383 116.453 87.6292 115.786 87.5115C115.12 87.3938 114.45 88.012 114.291 88.8923C114.131 89.7727 114.542 90.5818 115.209 90.6995C115.875 90.8172 116.545 90.1989 116.705 89.3186Z" fill="white"/>
<path d="M109.062 103.452C105.875 110.19 99.9258 117.285 87.2304 118.353C69.7858 119.824 59.2684 107.682 57.375 99.1564C55.6952 91.228 56.9992 82.9669 61.0429 75.9194C64.9022 69.1255 70.0911 64.3085 76.7854 58.3371C81.9588 53.7398 84.9283 50.7566 86.7545 47.0174C89.5481 41.281 89.5636 38.6247 93.7023 33.1232C98.2031 27.1518 105.534 25.6602 110.448 27.8976C111.193 28.2398 111.612 28.9958 110.216 29.144C106.925 29.5015 100.728 30.7224 97.5047 37.1127C95.1146 41.848 94.7111 46.0469 93.2212 49.8831C91.276 54.9197 88.1306 58.6385 82.5951 63.7773C76.7181 69.2379 71.1206 76.6345 68.8288 82.4221C67.0855 86.8232 66.5692 91.6053 67.3337 96.2703C68.2442 101.491 73.9452 107.089 81.4673 107.953C93.1125 109.291 97.1322 101.312 98.7204 99.2943L109.062 103.452Z" fill="#034A61"/>
<path d="M91.5097 114.369C79.0936 116.305 69.6109 111.335 66.1964 107.902C55.0065 96.6645 57.4224 86.4992 58.1674 84.6348C58.1674 84.6348 52.4094 99.3054 63.7908 110.222C72.5855 118.64 85.5758 119.896 94.2722 117.005L91.5097 114.369Z" fill="#0A2C37"/>
<path d="M110.758 28.9195C107.959 28.1635 102.729 28.2452 97.4573 33.1337C94.4516 35.9228 92.8531 42.6502 90.3802 49.8067C88.3108 55.7322 83.81 59.3386 80.7422 62.2911C72.8425 69.8869 68.3624 78.535 67.457 85.9214C67.457 85.9214 70.2041 74.9644 85.4655 60.682C93.4221 53.2445 93.8877 46.8287 95.7036 40.6274C97.5194 34.4261 100.484 31.8669 104.767 30.5694C109.051 29.2719 110.758 28.9195 110.758 28.9195Z" fill="#0A2C37"/>
<path d="M100.361 96.8114C100.495 97.8892 99.3258 100.162 97.4841 102.303C94.3801 105.878 89.3361 109.383 81.4157 108.473C73.4953 107.564 67.7477 101.603 66.832 96.3721C66.0547 91.6119 66.5909 86.7329 68.384 82.248C70.6396 76.5575 76.0923 69.166 82.2744 63.4194C87.4116 58.6534 90.7743 54.8785 92.7712 49.7142C93.3159 48.1921 93.777 46.642 94.1525 45.0708C94.8139 42.2518 95.7818 39.5116 97.0392 36.8978C99.4552 32.1012 103.873 29.3275 110.159 28.6481C110.291 28.6359 110.421 28.6103 110.547 28.5715C110.453 28.4877 110.347 28.4188 110.231 28.3672C105.808 26.3239 98.6585 27.4119 94.1163 33.4396C92.1003 36.0867 90.5122 39.0265 89.4085 42.1541C88.8394 43.6099 88.1876 45.2598 87.2202 47.2622C85.394 51.0065 82.5124 53.9437 77.1373 58.7454C70.1222 64.9927 65.2438 69.59 61.4931 76.1693C57.5238 83.1125 56.2372 91.2408 57.8717 99.0488C58.9064 103.692 62.2329 108.57 66.7802 112.105C70.7379 115.17 77.4891 118.659 87.1788 117.847C97.3341 116.989 104.339 112.228 108.581 103.237L109.517 103.667C105.104 113.004 97.8256 117.969 87.2719 118.863C85.5376 119.013 83.794 119.029 82.0572 118.909C67.5097 117.888 58.6632 107.37 56.8681 99.2684C55.1758 91.2172 56.4954 82.8331 60.5826 75.6687C64.416 68.9311 69.3462 64.2826 76.4337 57.9587C81.7106 53.2541 84.53 50.3833 86.2631 46.7974C87.215 44.8461 87.8151 43.283 88.4256 41.771C89.5635 38.5523 91.2043 35.5292 93.2885 32.8113C96.9099 27.9892 104.246 24.4594 110.671 27.4221C111.344 27.7337 111.706 28.2548 111.644 28.7503C111.587 29.0976 111.302 29.5318 110.273 29.6442C104.36 30.2827 100.216 32.8674 97.9652 37.3064C96.7386 39.8688 95.7951 42.5541 95.1509 45.316C94.7553 46.9175 94.2717 48.4966 93.7024 50.0462C91.6331 55.3944 88.1928 59.2409 82.947 64.1294C76.9614 69.6922 71.4777 77.1092 69.31 82.5852C67.5915 86.898 67.0856 91.5893 67.846 96.1627C68.6944 101.026 74.054 106.563 81.5243 107.401C88.8343 108.238 93.5162 105.271 96.6719 101.593C98.0373 100.106 99.2713 98.5061 100.361 96.8114V96.8114Z" fill="#0A2C37"/>
<path d="M108.452 99.7278C106.828 104.325 104.437 107.181 101.623 108.355C97.4845 110.082 92.1921 107.983 88.8708 101.562C84.6701 93.4346 85.1098 81.1954 94.4011 69.7838C98.8037 64.3793 100.232 61.3247 101.577 57.1155C103.077 52.4365 102.839 47.5633 100.904 44.764C100.263 43.8292 99.2072 43.4359 99.4038 45.6375C99.6656 48.6941 99.0902 51.764 97.738 54.5257C95.2289 59.4857 93.4234 60.7679 88.6794 65.5338C81.3798 72.864 72.8748 84.5515 77.8154 101.102C82.2075 115.783 96.5481 120.978 105.4 117.908C113.33 115.154 115.007 107.109 116.057 102.583L108.452 99.7278Z" fill="#034A61"/>
<path d="M115.88 102.16C115.88 102.16 109.258 116.754 96.7024 115.156C81.022 113.158 76.7591 97.277 76.4746 94.3398C76.4746 94.3398 77.6903 112.806 92.8121 117.413C114.959 124.166 115.88 102.16 115.88 102.16Z" fill="#0A2C37"/>
<path d="M86.8271 82.8709C89.5949 75.5202 94.2199 69.2525 97.8981 64.9566C101.576 60.6606 102.14 55.251 102.497 51.8184C101.685 56.6711 99.5588 60.5022 96.3772 64.1903C93.1956 67.8784 88.2653 73.6762 86.8271 82.8709Z" fill="#0A2C37"/>
<path d="M128.023 111.369C124.676 111.987 121.054 102.737 122.275 94.2008C123.175 88.0097 121.479 81.2363 121.479 81.2363L126.559 81.456C126.559 81.456 127.076 86.7225 125.653 94.9109C123.822 105.423 123.274 109.306 128.023 111.369Z" fill="#0A2C37"/>
<path d="M141.303 101.977C140.693 104.781 137.335 114.124 131.707 116.039C126.078 117.955 122.131 116.657 119.647 114.859C119.647 114.859 125.633 121.5 133.284 118.241C140.936 114.982 141.303 101.977 141.303 101.977Z" fill="#0A2C37"/>
<path d="M115.969 102.494C115.226 105.586 114.057 108.563 112.493 111.341C110.923 114.185 108.343 116.356 105.25 117.435C100.92 118.937 95.4204 118.355 90.5161 115.903C84.6495 112.94 80.3246 107.643 78.3328 100.987C74.5666 88.4157 78.0742 76.9478 89.052 65.9244C89.8332 65.1378 90.5316 64.4482 91.1731 63.8199C94.4375 60.6119 96.0723 58.9977 98.2089 54.7835C99.5798 52.0711 100.18 48.383 100.045 44.7511C102.348 46.4776 102.554 52.4133 101.08 57.0107C99.7195 61.2556 98.3123 64.2081 93.9926 69.5155C83.9356 81.8619 84.515 94.3105 88.4054 101.84C92.1198 109.022 97.8209 110.524 101.82 108.874C104.857 107.602 108.183 102.862 108.199 99.6791C106.522 103.597 104.179 106.769 101.416 107.924C97.8571 109.41 92.7406 107.959 89.3262 101.365C85.5807 94.1215 85.0479 82.1122 94.7996 70.1438C99.197 64.7444 100.697 61.5825 102.068 57.3069C103.62 52.444 103.429 47.3409 101.132 44.5365C100.547 43.8214 100.133 43.3821 99.6057 43.6018C98.9073 43.898 99.1246 45.2926 99.0883 45.7421C99.0263 48.7252 98.5348 51.7952 97.2466 54.3442C95.1773 58.4307 93.5891 59.9632 90.4074 63.1149C89.766 63.7432 89.0624 64.4328 88.276 65.2195C77.0447 76.4983 73.4595 88.2982 77.3344 101.263C79.4037 108.189 83.9201 113.706 90.0401 116.797C92.7409 118.175 95.6947 119.004 98.7262 119.233C101.046 119.419 103.381 119.136 105.586 118.401C112.13 116.133 114.541 110.452 115.798 105.886C116.285 109.231 117.609 113.548 120.568 116.424C122.506 118.297 125.071 119.405 127.78 119.54C128.335 119.571 128.891 119.571 129.446 119.54C137.93 119.182 142.224 108.981 141.955 99.5719C141.794 93.9222 139.916 88.8447 138.546 85.1107C138.142 84.0226 137.764 82.9908 137.48 82.102C135.861 76.9938 136.388 73.791 139.032 70.0927C139.704 69.1528 139.885 68.6215 139.549 68.2537C139.213 67.8859 138.556 68.0494 137.64 68.5909C134.867 70.2459 133.181 72.3607 132.343 74.7871C131.373 77.7788 131.384 80.9965 132.374 83.9818C135.038 92.2621 135.24 96.2414 135.059 99.2603C134.816 103.413 132.896 107.944 130.594 109.809C130.275 110.11 129.894 110.34 129.478 110.485C129.061 110.629 128.618 110.684 128.178 110.646C127.824 110.603 127.483 110.486 127.178 110.302C126.873 110.119 126.611 109.874 126.409 109.584C124.857 107.479 125.059 102.218 126.538 93.8661C128.157 84.6969 127.18 81.2693 127.143 81.1314C127.081 80.8556 126.073 81.0803 126.135 81.3562C126.135 81.3868 126.854 84.7429 125.281 93.6515C123.708 102.56 123.801 107.781 125.571 110.187C125.855 110.588 126.22 110.927 126.644 111.181C127.068 111.436 127.541 111.6 128.033 111.663C128.615 111.72 129.203 111.655 129.758 111.472C130.312 111.289 130.821 110.992 131.251 110.6C133.791 108.557 135.83 103.801 136.093 99.3165C136.28 96.1749 136.093 92.1088 133.357 83.6702C132.427 80.8675 132.427 77.8452 133.357 75.0425C134.341 72.4639 136.237 70.3245 138.696 69.02C137.2 70.9662 135.886 73.5049 135.592 75.4869C135.297 77.4689 135.623 79.6909 136.481 82.4289C136.771 83.3381 137.154 84.3802 137.563 85.4938C138.985 89.3504 140.755 94.1777 140.91 99.6332C141.168 108.557 137.216 118.222 129.389 118.533C126.114 118.671 123.388 117.711 121.282 115.683C119.972 114.367 118.944 112.803 118.261 111.086C117.162 108.319 116.393 105.436 115.969 102.494V102.494Z" fill="#0A2C37"/>
<path d="M126.636 81.2356C132.508 64.8231 129.021 47.5677 129.021 47.5677C132.399 45.6368 135.87 40.0332 135.87 40.0332C133.625 29.776 126.098 21.5723 126.098 21.5723C126.098 21.5723 114.489 28.9485 109.253 37.9746C109.253 37.9746 110.805 42.8886 112.28 44.9166C112.28 44.9166 102.135 61.6407 100.795 76.7046C100.795 76.6893 114.359 80.0914 126.636 81.2356Z" fill="#034A61"/>
<path d="M126.325 81.2539L121.529 80.5694C126.951 68.5959 125.911 52.7248 125.477 48.2348C125.436 47.8641 125.478 47.4891 125.599 47.1361C125.721 46.7832 125.919 46.4607 126.18 46.1915C128.374 43.6374 130.95 40.4448 131.322 38.5854C131.695 36.7261 126.046 21.9277 126.046 21.9277C126.046 21.9277 134.178 31.1429 136.242 39.9646C136.242 39.9646 131.881 45.8646 129.232 47.8057C129.232 47.8006 132.093 68.1923 126.325 81.2539Z" fill="#0A2C37"/>
<path d="M126.6 81.7476C113.056 81.1245 100.821 77.2269 100.687 77.1912C100.568 77.1614 100.464 77.0912 100.393 76.993C100.322 76.8949 100.289 76.7751 100.299 76.6548C101.463 60.135 110.35 47.2063 111.68 44.928C110.462 43.0011 109.468 40.9449 108.716 38.7982C108.594 38.4797 108.555 38.1363 108.602 37.7991C108.649 37.4619 108.78 37.1416 108.985 36.8673C109.553 35.9548 110.173 35.0748 110.842 34.2315C112.314 32.3647 113.926 30.6093 115.663 28.9803C118.768 26.0785 122.131 23.4577 125.71 21.1495C125.763 21.0964 125.828 21.0554 125.899 21.0295C125.97 21.0037 126.046 20.9935 126.122 20.9999C126.197 21.0062 126.27 21.0289 126.336 21.0662C126.402 21.1035 126.458 21.1546 126.502 21.2159C128.949 24.0022 131.078 27.0463 132.849 30.2931C133.754 31.9299 134.548 33.6245 135.224 35.3655C135.771 36.7557 136.222 38.1807 136.574 39.6309C136.637 39.828 136.652 40.0367 136.619 40.2406C136.585 40.4444 136.505 40.6379 136.383 40.8057C135.591 42.047 132.648 46.0671 129.761 47.8908C130.211 50.4448 133.051 66.0503 127.133 81.4054C127.095 81.5129 127.022 81.6049 126.926 81.6669C126.829 81.7289 126.715 81.7573 126.6 81.7476V81.7476ZM128.535 47.4668C131.877 44.9944 135.26 40.2643 135.317 39.9425C135.374 39.6206 133.284 33.6083 131.882 30.9674C129.518 26.5233 126.295 22.3142 125.974 22.2835C125.653 22.2529 120.609 25.9563 116.553 29.8589C114.055 32.2598 109.931 37.3833 109.828 38.032C109.724 38.6807 111.297 42.3229 112.896 44.9229C112.797 45.0864 102.828 61.6572 101.364 76.3177C103.734 76.8898 115.513 79.6584 126.29 80.7056C131.856 64.7068 128.571 47.6251 128.535 47.4668Z" fill="#0A2C37"/>
<path d="M112.513 39.0335C112.916 37.7537 113.503 36.5375 114.256 35.422C114.992 34.302 115.81 33.2366 116.703 32.2345C117.586 31.2375 118.52 30.2861 119.502 29.3842C120.483 28.471 121.519 27.618 122.606 26.8301C121.809 27.913 120.95 28.9244 120.081 29.9205L117.464 32.8935C116.589 33.8691 115.731 34.8652 114.877 35.8715C114.023 36.8778 113.294 37.9199 112.513 39.0335Z" fill="#75CCC7" fill-opacity="0.5"/>
<path d="M94.5566 95.7913C95.4737 94.6162 96.2806 93.3613 96.9674 92.0419C97.6022 90.7164 98.1483 89.3513 98.6022 87.9554C99.0523 86.5404 99.5024 85.1305 100.077 83.7309C100.637 82.3074 101.387 80.9641 102.306 79.7363C102.121 81.2352 101.825 82.7188 101.422 84.1753C101.037 85.6355 100.532 87.062 99.9111 88.4406C99.6162 89.1404 99.3006 89.8352 98.9436 90.5197C98.5989 91.2105 98.2047 91.8763 97.7641 92.5118C96.8789 93.7669 95.7961 94.874 94.5566 95.7913Z" fill="#75CCC7" fill-opacity="0.5"/>
<path d="M114.462 47.0078C113.655 49.1737 112.823 51.3038 111.984 53.4288C111.146 55.5538 110.308 57.6737 109.512 59.8089C108.715 61.9441 107.872 64.0589 107.08 66.1992C106.289 68.3395 105.528 70.4849 104.628 72.6303C104.882 70.3364 105.315 68.0651 105.921 65.8365C106.511 63.6082 107.225 61.4135 108.058 59.2623C108.482 58.1896 108.925 57.1237 109.387 56.0646C109.874 55.0429 110.344 53.9651 110.883 52.9435C111.916 50.875 113.113 48.8903 114.462 47.0078V47.0078Z" fill="#75CCC7" fill-opacity="0.5"/>
</g>
<path d="M199.312 91.4116C198.44 91.7603 197.285 92.0436 195.847 92.2615C194.452 92.523 193.21 92.6538 192.12 92.6538C188.764 92.6538 186.236 91.9346 184.536 90.4962C182.836 89.0579 181.986 86.6606 181.986 83.3044V65.1286H178.325V58.5906H182.313L185.648 47.9336H191.532V58.5906H199.312V65.1286H191.532V81.6699C191.532 83.4134 191.859 84.5902 192.513 85.2004C193.21 85.8107 194.125 86.1158 195.259 86.1158C195.782 86.1158 196.457 86.0286 197.285 85.8542C198.114 85.6799 198.789 85.4837 199.312 85.2658V91.4116ZM224.228 70.0322C224.228 68.681 223.858 67.5259 223.117 66.567C222.376 65.5645 221.199 65.0633 219.586 65.0633C218.061 65.0633 216.884 65.6735 216.056 66.8939C215.271 68.0708 214.879 69.5527 214.879 71.3398V92H205.464V58.5906H212.525L213.702 63.4941C213.876 63.0147 214.312 62.3391 215.01 61.4673C215.751 60.5956 216.797 59.7892 218.148 59.0483C219.543 58.3073 221.177 57.9368 223.051 57.9368C226.059 57.9368 228.369 58.8739 229.982 60.7482C231.638 62.6224 232.466 65.1068 232.466 68.2015C232.466 68.8553 232.423 69.5091 232.335 70.1629C232.292 70.8167 232.248 71.2744 232.205 71.5359H224.228V70.0322ZM267.854 84.1543C267.854 84.8082 268.05 85.3094 268.442 85.6581C268.835 85.9632 269.27 86.1158 269.75 86.1158C270.186 86.1158 270.665 86.0286 271.188 85.8542C271.711 85.6799 272.125 85.5273 272.431 85.3966V91.2808C270.818 92.1961 268.9 92.6538 266.677 92.6538C262.318 92.6538 259.79 91.0629 259.093 87.881C256.347 91.0629 252.991 92.6538 249.024 92.6538C245.625 92.6538 242.813 91.7385 240.59 89.9078C238.411 88.0772 237.321 85.4184 237.321 81.9314V58.5906H246.867V79.8392C246.867 81.5391 247.346 82.9557 248.305 84.089C249.308 85.1786 250.572 85.7235 252.097 85.7235C253.797 85.7235 255.257 85.0915 256.478 83.8274C257.698 82.5198 258.308 80.9507 258.308 79.1201V58.5906H267.854V84.1543ZM277.485 92V44.9261H287.03V92H277.485ZM326.736 79.5123C326.736 82.4327 326.038 84.8953 324.643 86.9003C323.249 88.8617 321.396 90.3219 319.086 91.2808C316.82 92.1961 314.335 92.6538 311.633 92.6538H310.587C307.492 92.6538 304.702 92 302.218 90.6924C299.733 89.3848 297.772 87.5105 296.334 85.0697C294.939 82.5852 294.242 79.6431 294.242 76.2433V74.3473C294.242 70.9911 294.961 68.0708 296.399 65.5863C297.837 63.1018 299.777 61.2058 302.218 59.8982C304.702 58.5906 307.492 57.9368 310.587 57.9368H311.633C314.335 57.9368 316.841 58.5034 319.151 59.6367C321.462 60.7264 323.314 62.3391 324.709 64.4748C326.104 66.567 326.801 69.0515 326.801 71.9282V76.8971H303.918V78.4662C303.918 80.6456 304.55 82.4763 305.814 83.9582C307.121 85.3966 308.887 86.1158 311.11 86.1158C313.115 86.1158 314.684 85.5709 315.817 84.4813C316.994 83.348 317.582 81.6917 317.582 79.5123H326.736ZM310.652 64.4748C308.734 64.4748 307.165 65.1504 305.945 66.5016C304.768 67.8528 304.092 69.5745 303.918 71.6667H317.125C317.125 69.4437 316.602 67.7003 315.556 66.4362C314.553 65.1286 312.919 64.4748 310.652 64.4748ZM342.099 63.4941C344.845 59.7892 348.397 57.9368 352.756 57.9368C356.156 57.9368 358.945 58.8521 361.125 60.6828C363.348 62.5134 364.459 65.1722 364.459 68.6592V92H354.914V70.7514C354.914 69.0515 354.412 67.6567 353.41 66.567C352.451 65.4337 351.209 64.8671 349.683 64.8671C347.983 64.8671 346.523 65.5209 345.303 66.8285C344.082 68.0926 343.472 69.6399 343.472 71.4705V92H333.926V58.5906H341.053L342.099 63.4941ZM378.953 81.8007C378.953 83.3262 379.628 84.4377 380.979 85.1351C382.331 85.7889 384.009 86.1158 386.014 86.1158C387.757 86.1158 389.305 85.8542 390.656 85.3312C392.05 84.8082 392.748 83.98 392.748 82.8467C392.748 81.6263 392.116 80.7546 390.852 80.2315C389.588 79.7085 387.626 79.2508 384.968 78.8585C382.178 78.3791 379.89 77.856 378.103 77.2894C376.316 76.7228 374.768 75.7421 373.461 74.3473C372.197 72.9525 371.565 71.0129 371.565 68.5284C371.565 66.2619 372.218 64.3441 373.526 62.7749C374.877 61.1622 376.642 59.9636 378.822 59.179C381.045 58.3509 383.464 57.9368 386.079 57.9368H387.387C389.697 57.9368 391.876 58.3291 393.925 59.1136C396.017 59.8546 397.695 60.9225 398.959 62.3173C400.223 63.6685 400.855 65.2158 400.855 66.9593C400.855 67.308 400.833 67.6349 400.79 67.94C400.746 68.2015 400.724 68.3541 400.724 68.3977H392.356C392.356 65.7824 390.351 64.4748 386.341 64.4748C384.51 64.4748 383.028 64.7364 381.895 65.2594C380.805 65.7824 380.26 66.5016 380.26 67.417C380.26 68.5066 380.849 69.2694 382.025 69.7053C383.246 70.1411 385.142 70.5552 387.714 70.9475C390.634 71.427 392.988 71.95 394.775 72.5166C396.605 73.0397 398.196 74.0204 399.547 75.4587C400.899 76.8535 401.574 78.8367 401.574 81.4084C401.574 85.3748 400.179 88.2515 397.39 90.0386C394.6 91.7821 391.048 92.6538 386.733 92.6538H384.575C381.873 92.6538 379.454 92.2397 377.318 91.4116C375.182 90.5834 373.504 89.4066 372.284 87.881C371.107 86.3555 370.519 84.612 370.519 82.6506L370.584 81.343H378.953V81.8007Z" fill="#0A2C37"/>
<defs>
<clipPath id="clip0_939_3519">
<rect width="126.97" height="101.576" fill="white" transform="translate(15 18)"/>
</clipPath>
</defs>
</svg>
