<?xml version="1.0" standalone="no"?>
<!DOCTYPE svg PUBLIC "-//W3C//DTD SVG 20010904//EN"
 "http://www.w3.org/TR/2001/REC-SVG-20010904/DTD/svg10.dtd">
<svg version="1.0" xmlns="http://www.w3.org/2000/svg"
 width="700.000000pt" height="700.000000pt" viewBox="0 0 700.000000 700.000000"
 preserveAspectRatio="xMidYMid meet">
<metadata>
Created by potrace 1.14, written by Peter Selinger 2001-2017
</metadata>
<g transform="translate(0.000000,700.000000) scale(0.100000,-0.100000)"
fill="#000000" stroke="none">
<path d="M1857 6880 c-163 -150 -245 -335 -234 -530 6 -99 11 -123 37 -191 59
-149 186 -278 323 -327 96 -34 262 -17 317 33 36 32 52 72 40 95 -9 18 -31 26
-115 46 -133 31 -228 146 -226 274 2 151 102 278 267 340 160 59 380 7 494
-117 72 -79 93 -142 94 -278 0 -132 -17 -203 -79 -331 -62 -128 -147 -239
-299 -389 -154 -153 -292 -261 -586 -462 -360 -246 -537 -370 -725 -511 -99
-75 -182 -138 -185 -141 -3 -4 -30 -26 -60 -51 -328 -266 -663 -616 -860 -897
l-43 -62 1 -1558 c0 -857 1 -1570 1 -1584 1 -28 11 -41 98 -131 l55 -58 373 0
374 0 -28 63 c-41 91 -77 198 -106 314 -25 98 -57 285 -50 291 2 2 -25 43 -61
90 -121 165 -214 361 -262 553 -27 110 -32 140 -47 269 -7 65 -7 258 0 315 2
22 7 63 10 90 5 49 10 85 20 135 3 14 8 39 11 55 90 511 473 1071 1173 1715
63 58 122 112 130 120 9 8 46 40 81 70 36 30 72 62 80 70 8 9 146 123 305 255
435 357 590 499 754 685 244 277 382 549 427 840 20 130 5 350 -32 480 -47
166 -160 339 -287 441 l-49 39 -532 0 -533 0 -66 -60z"/>
<path d="M6389 6808 c-73 -50 -303 -222 -325 -243 -6 -5 -27 -23 -47 -38 -92
-72 -273 -235 -382 -343 -214 -213 -344 -368 -473 -567 l-71 -109 35 -100 c63
-181 145 -369 193 -443 l19 -30 -65 -115 c-78 -139 -293 -573 -358 -725 -26
-60 -53 -123 -61 -140 -113 -252 -289 -780 -349 -1045 -18 -79 -44 -202 -49
-230 -3 -19 -8 -46 -11 -60 -2 -13 -7 -42 -10 -65 -3 -22 -8 -51 -10 -65 -2
-14 -7 -50 -10 -80 l-6 -56 138 -32 c76 -18 192 -44 258 -58 66 -14 129 -27
140 -30 11 -2 34 -7 50 -9 17 -3 84 -17 150 -30 66 -13 174 -34 240 -45 66
-11 129 -22 140 -24 112 -20 144 -26 170 -30 63 -9 121 -18 140 -22 10 -2 37
-6 60 -9 22 -3 51 -8 65 -10 14 -2 45 -7 70 -10 25 -4 56 -8 70 -10 57 -8 108
-15 150 -20 25 -3 61 -8 81 -11 39 -5 90 -12 151 -19 l37 -5 40 127 c33 107
72 246 86 313 55 252 92 487 110 695 4 39 8 80 10 92 6 39 18 343 18 478 1
117 -9 396 -17 500 -15 189 -39 389 -61 505 -4 21 3 30 43 57 26 18 72 54 102
81 l55 49 0 679 -1 679 -78 125 c-115 182 -202 304 -312 437 l-52 62 -73 -51z"/>
<path d="M4625 6404 c-308 -53 -583 -224 -788 -492 -176 -229 -255 -376 -405
-752 -124 -308 -175 -421 -240 -530 -47 -77 -140 -204 -201 -275 -87 -100
-497 -499 -635 -618 -165 -143 -621 -593 -727 -718 -94 -111 -98 -116 -170
-209 -432 -558 -643 -1146 -643 -1790 0 -119 11 -317 18 -329 2 -3 7 -35 10
-70 4 -35 13 -91 21 -125 8 -33 16 -72 19 -86 8 -46 57 -189 92 -275 l36 -85
560 0 560 0 -53 48 c-89 80 -159 154 -215 229 -30 40 -54 75 -54 78 0 3 -12
24 -27 48 -33 53 -83 173 -99 242 -33 141 -43 481 -18 644 66 427 240 804 596
1291 39 54 179 233 187 240 4 3 19 21 35 40 93 115 285 320 420 449 349 334
528 534 668 747 160 243 224 400 348 859 93 344 188 585 295 745 159 239 397
399 713 479 100 25 139 32 242 45 150 20 64 109 -156 162 -90 21 -286 25 -389
8z"/>
<path d="M4309 4994 c-9 -11 -13 -67 -15 -207 -2 -212 -4 -228 -33 -348 -67
-282 -215 -545 -466 -825 -5 -7 -120 -124 -255 -260 -259 -263 -330 -340 -448
-488 -309 -386 -510 -780 -607 -1191 -27 -114 -35 -155 -50 -275 -23 -181 -22
-487 2 -615 3 -16 5 -37 5 -45 1 -30 49 -267 77 -375 16 -60 46 -156 67 -212
l38 -103 464 0 464 0 -18 27 c-46 70 -93 154 -123 217 -33 69 -86 219 -95 266
-2 14 -13 59 -24 100 -21 78 -35 157 -51 275 -10 69 -8 446 2 495 3 14 8 46
11 71 9 63 15 100 22 129 3 14 7 32 9 40 51 246 167 542 308 785 37 63 140
225 159 250 5 6 32 42 60 80 28 39 55 72 58 75 11 9 215 283 257 345 118 176
205 344 276 530 105 277 138 432 142 660 3 138 0 175 -20 272 -28 134 -87 266
-140 312 -40 35 -57 38 -76 15z"/>
<path d="M4384 2262 c-33 -22 -125 -192 -204 -377 -71 -165 -223 -578 -235
-636 -12 -57 -113 -265 -176 -360 -83 -125 -226 -283 -332 -366 l-28 -22 27
-68 c38 -97 98 -210 158 -300 l53 -78 105 -3 104 -3 91 93 c50 51 106 111 125
133 18 22 35 42 38 45 13 12 152 192 199 258 29 39 54 72 56 72 1 0 0 -15 -5
-32 -9 -40 -80 -198 -89 -198 -3 0 -12 -12 -18 -28 -19 -41 -140 -198 -212
-274 l-63 -68 412 0 c381 0 414 1 426 18 44 56 95 140 141 231 43 86 51 98 46
65 -9 -62 -53 -194 -84 -257 l-29 -57 353 0 353 0 18 90 c10 50 21 90 26 90 4
0 10 -37 14 -82 4 -44 9 -85 12 -90 3 -4 158 -8 345 -8 l339 0 1 93 c1 50 2
106 3 122 4 53 17 189 21 220 18 129 27 205 31 235 2 19 6 44 9 56 2 12 7 39
10 60 3 21 10 62 15 89 16 87 49 327 56 404 3 41 8 84 11 95 7 31 14 443 7
459 -3 9 -28 17 -67 21 -90 10 -127 15 -177 22 -25 3 -57 8 -73 10 -82 10
-196 26 -222 30 -16 3 -41 7 -55 9 -14 2 -38 6 -55 9 -16 2 -48 7 -70 11 -22
3 -96 15 -165 26 -69 12 -137 23 -151 25 -35 4 -386 71 -468 89 -36 7 -84 17
-106 21 -22 4 -44 8 -50 9 -5 2 -55 12 -110 24 -55 12 -129 29 -165 37 -36 9
-76 18 -90 20 -14 3 -34 7 -45 10 -11 3 -27 7 -35 10 -8 2 -20 0 -26 -4z
m1381 -417 c254 -95 427 -359 427 -651 0 -113 -30 -240 -79 -338 -48 -95 -66
-120 -148 -201 -128 -127 -284 -188 -463 -181 -53 2 -104 6 -112 8 -8 3 -35
10 -60 17 -147 41 -313 181 -382 321 -122 248 -107 527 40 752 164 252 510
374 777 273z"/>
<path d="M5443 1795 c-160 -35 -325 -158 -399 -297 -21 -40 -39 -75 -39 -78
-1 -3 -6 -21 -12 -40 -103 -309 32 -666 295 -782 192 -85 404 -57 567 75 150
122 237 298 249 506 3 39 -12 163 -25 211 -7 25 -26 72 -42 105 -116 235 -351
354 -594 300z m214 -218 c45 -24 88 -78 114 -144 18 -48 22 -79 23 -173 1 -99
-3 -127 -26 -201 -72 -225 -222 -340 -358 -272 -118 59 -171 241 -130 445 53
259 229 421 377 345z"/>
<path d="M5595 1422 c-32 -6 -75 -53 -86 -95 -37 -139 84 -223 165 -114 31 42
30 146 -2 180 -26 27 -46 35 -77 29z"/>
<path d="M1866 498 c40 -69 96 -150 130 -187 21 -23 24 -23 75 -11 59 14 233
70 297 95 38 16 40 18 36 52 -7 54 0 50 -119 69 -52 8 -95 13 -145 19 -30 3
-66 8 -80 10 -14 2 -71 7 -128 10 l-102 6 36 -63z"/>
<path d="M2279 275 c-69 -24 -138 -46 -153 -49 -16 -3 -31 -8 -35 -11 -7 -8
45 -55 133 -121 l58 -44 118 0 118 0 -23 63 c-13 34 -34 95 -45 135 -12 39
-27 72 -33 71 -7 0 -69 -20 -138 -44z"/>
</g>
</svg>
