<?xml version="1.0" encoding="UTF-8" standalone="no"?>
<!DOCTYPE svg PUBLIC "-//W3C//DTD SVG 1.1//EN" "http://www.w3.org/Graphics/SVG/1.1/DTD/svg11.dtd">
<svg width="100%" height="100%" viewBox="0 0 348 280" version="1.1" xmlns="http://www.w3.org/2000/svg" xmlns:xlink="http://www.w3.org/1999/xlink" xml:space="preserve" xmlns:serif="http://www.serif.com/" style="fill-rule:evenodd;clip-rule:evenodd;stroke-linejoin:round;stroke-miterlimit:2;">
    <style>
        .trulens-squid { display: block; }
        .trulens-squid-light { display: none; }

        @media (prefers-color-scheme: dark) {
            .trulens-squid { display: none; }
            .trulens-squid-light { display: block; }
        }
    </style>
    <g transform="matrix(2.74061,0,0,2.74061,-41.0713,-48.485)" class="trulens-squid">
        <g>
            <clipPath id="_clip1">
                <rect x="15" y="18" width="126.97" height="101.576"/>
            </clipPath>
            <g clip-path="url(#_clip1)">
                <path d="M123.693,116.641C121.855,118.123 119.508,118.844 117.143,118.654C114.67,118.414 111.385,117.024 109.688,114.833L113.403,99.432L122.161,100.04L123.693,116.641Z" style="fill:rgb(10,44,55);fill-rule:nonzero;"/>
                <path d="M117.308,119.18L117.096,119.18C114.644,118.94 111.152,117.581 109.279,115.16C109.234,115.107 109.201,115.046 109.181,114.98C109.161,114.914 109.155,114.844 109.162,114.776C109.17,114.707 109.192,114.641 109.227,114.581C109.261,114.521 109.308,114.468 109.363,114.427C109.419,114.385 109.482,114.355 109.55,114.338C109.618,114.321 109.688,114.318 109.757,114.329C109.826,114.339 109.892,114.364 109.952,114.4C110.011,114.437 110.062,114.485 110.102,114.542C111.711,116.621 114.887,117.939 117.194,118.164C119.421,118.337 121.629,117.656 123.361,116.263C123.466,116.176 123.602,116.133 123.739,116.145C123.875,116.156 124.002,116.221 124.09,116.325C124.179,116.428 124.222,116.562 124.21,116.698C124.199,116.833 124.133,116.958 124.028,117.045C122.142,118.569 119.741,119.332 117.308,119.18Z" style="fill:rgb(10,44,55);fill-rule:nonzero;"/>
                <path d="M100.671,77.188C100.671,77.188 98.86,78.689 95.332,89.141C94.039,92.967 91.617,96.803 88.089,99.04C88.089,99.04 86.02,107.724 96.884,110.789C105.637,113.272 115.968,103.086 115.968,103.086L125.674,94.233C127.298,85.039 126.527,81.739 126.527,81.739L115.11,74.531L100.671,77.188Z" style="fill:rgb(3,74,97);fill-rule:nonzero;"/>
                <path d="M82.698,113.219C76.195,107.702 71.757,106.992 65.181,107.391C59.054,107.83 52.896,107.225 46.976,105.603C37.064,102.778 29.775,97.042 27.473,89.89C23.639,77.963 28.595,68.768 29.102,64.35C29.609,59.931 26.102,57.362 23.526,57.954C20.83,58.572 19.982,61.417 20.504,63.537C20.744,64.539 21.309,65.436 22.113,66.091C22.724,66.602 23.003,67.404 21.73,67.624C20.618,67.808 18.828,67.675 17.224,65.724C13.712,61.417 15.688,54.184 22.537,52.325C27.711,50.93 32.884,53.995 34.788,58.317C36.433,62.117 35.621,67.818 35.021,70.689C34.022,75.46 32.563,86.851 40.965,92.981C42.977,94.447 49.346,97.491 65.569,97.854C73.785,98.033 80.086,98.84 85.104,102.814L82.698,113.219Z" style="fill:rgb(3,74,97);fill-rule:nonzero;"/>
                <path d="M62.336,107.576C56.831,107.75 42.522,105.563 35.17,100.082C22.941,90.954 27.136,75.104 27.136,75.104C26.65,77.816 29.552,101.012 52.801,101.758L62.336,107.576Z" style="fill:rgb(10,44,55);fill-rule:nonzero;"/>
                <path d="M29.32,64.784C31.793,58.654 25.45,54.532 21.42,57.066C18.43,58.946 17.762,63.834 22.775,67.282C22.775,67.282 18.068,61.939 22.258,58.695C24.053,57.311 25.879,57.944 26.867,58.343C29.909,59.528 29.32,64.784 29.32,64.784Z" style="fill:rgb(10,44,55);fill-rule:nonzero;"/>
                <path d="M82.662,113.73C82.551,113.724 82.445,113.681 82.362,113.607C76.04,108.243 71.798,107.477 65.218,107.922C59.033,108.357 52.818,107.745 46.842,106.113C36.563,103.186 29.325,97.337 26.987,90.063C24.043,80.905 26.205,73.309 27.633,68.282C28.049,66.977 28.369,65.644 28.59,64.293C28.726,63.41 28.642,62.508 28.348,61.664C28.053,60.82 27.556,60.058 26.899,59.445C26.474,59.034 25.957,58.727 25.39,58.55C24.823,58.372 24.221,58.329 23.634,58.423C23.191,58.52 22.772,58.706 22.404,58.969C22.036,59.233 21.728,59.569 21.498,59.956C20.88,61 20.695,62.239 20.98,63.414C21.202,64.304 21.706,65.1 22.419,65.687C22.663,65.85 22.856,66.078 22.974,66.345C23.093,66.612 23.131,66.906 23.086,67.194C22.993,67.526 22.693,67.95 21.793,68.098C20.706,68.272 18.621,68.236 16.8,66.014C15.927,64.92 15.345,63.628 15.106,62.255C14.868,60.882 14.98,59.472 15.435,58.153C16.438,55.088 18.978,52.764 22.403,51.834C28.094,50.301 33.396,53.821 35.264,58.117C37.039,62.204 36.04,68.333 35.528,70.79C34.333,76.491 33.495,86.896 41.275,92.566C42.677,93.588 48.585,96.965 65.59,97.343C74.126,97.532 80.422,98.446 85.44,102.41C85.494,102.452 85.538,102.504 85.571,102.564C85.604,102.623 85.625,102.688 85.632,102.755C85.64,102.822 85.634,102.89 85.614,102.955C85.595,103.02 85.563,103.08 85.521,103.133C85.478,103.185 85.425,103.229 85.365,103.262C85.305,103.294 85.239,103.315 85.171,103.322C85.103,103.329 85.034,103.323 84.969,103.304C84.903,103.286 84.842,103.254 84.789,103.212C79.998,99.422 73.883,98.548 65.564,98.364C48.741,97.986 42.548,94.763 40.67,93.389C32.424,87.376 33.283,76.532 34.524,70.586C35.042,68.236 35.983,62.352 34.322,58.521C32.662,54.689 27.809,51.425 22.677,52.82C19.573,53.653 17.312,55.711 16.418,58.439C16.015,59.603 15.916,60.848 16.127,62.06C16.339,63.272 16.855,64.412 17.628,65.376C19.051,67.107 20.598,67.266 21.648,67.092C21.817,67.085 21.98,67.026 22.113,66.924C22.059,66.74 21.942,66.582 21.782,66.474C20.898,65.748 20.273,64.762 19.997,63.659C19.642,62.221 19.869,60.702 20.629,59.425C20.935,58.928 21.339,58.498 21.817,58.159C22.295,57.82 22.838,57.58 23.412,57.453C24.159,57.314 24.928,57.353 25.657,57.567C26.386,57.78 27.052,58.161 27.602,58.679C28.382,59.401 28.973,60.3 29.325,61.297C29.676,62.294 29.777,63.361 29.62,64.405C29.393,65.815 29.063,67.206 28.632,68.568C27.235,73.472 25.124,80.889 27.975,89.757C30.205,96.699 37.189,102.308 47.116,105.138C52.983,106.731 59.082,107.32 65.15,106.879C71.876,106.45 76.48,107.252 83.035,112.815C83.086,112.859 83.129,112.912 83.16,112.972C83.191,113.032 83.209,113.097 83.214,113.164C83.22,113.231 83.212,113.298 83.191,113.362C83.169,113.425 83.136,113.484 83.092,113.535C83.041,113.599 82.975,113.65 82.901,113.684C82.826,113.717 82.744,113.733 82.662,113.73Z" style="fill:rgb(10,44,55);fill-rule:nonzero;"/>
                <path d="M92.828,107.007C82.435,108.259 72.751,118.245 57.841,110.496C39.336,100.867 38.229,84.444 42.606,72.062C47.644,57.785 61.861,49.029 70.8,43.027C77.008,38.834 82.182,34.057 81.773,28.725C81.452,24.342 76.936,24.005 75.731,24.168C74.362,24.311 73.097,24.952 72.182,25.966C70.242,28.382 71.245,31.616 74.768,32.04C75.984,32.183 75.725,33.174 74.908,33.756C73.992,34.41 71.726,34.67 69.636,33.245C66.874,31.381 64.929,26.666 68.545,22.237C71.473,18.661 75.932,17.987 79.58,18.83C83.516,19.734 87.976,23.233 88.059,30.068C88.162,38.782 80.299,45.137 74.608,49.745C68.917,54.352 55.353,65.059 52.249,75.388C49.145,85.716 51.788,95.682 63.113,101.771C70.981,106.001 76.429,99.728 87.981,98.42L92.828,107.007Z" style="fill:rgb(3,74,97);fill-rule:nonzero;"/>
                <path d="M83.417,104.966C83.417,104.966 71.348,115.392 54.317,103.852C44.425,97.176 40.866,84.916 41.316,76.365C41.316,76.365 36.733,91.966 48.342,103.75C59.951,115.535 73.722,115.351 84.891,109.558L83.417,104.966Z" style="fill:rgb(10,44,55);fill-rule:nonzero;"/>
                <path d="M81.7,29.145C82.419,25.058 79.563,21.963 75.078,22.233C71.421,22.453 68.456,26.953 71.162,30.273C71.162,30.273 69.61,25.64 75.301,24.333C80.37,23.158 81.7,29.145 81.7,29.145Z" style="fill:rgb(10,44,55);fill-rule:nonzero;"/>
                <path d="M87.696,33.65C84.742,38.585 78.047,44.781 73.014,48.219C67.628,51.897 51.286,64.601 51.461,78.306C51.461,78.306 51.461,72.937 58.559,64.575C65.45,56.402 76.469,48.571 79.129,45.946C87.68,37.517 87.696,33.65 87.696,33.65Z" style="fill:rgb(10,44,55);fill-rule:nonzero;"/>
                <path d="M67.494,113.863C64.025,113.598 60.653,112.611 57.598,110.967C49.005,106.477 43.454,100.24 41.146,92.46C38.767,84.471 40.36,76.865 42.119,71.895C46.894,58.368 59.522,49.929 68.746,43.8L70.505,42.615C78.157,37.466 81.576,33.073 81.261,28.792C81.242,28.219 81.102,27.657 80.848,27.141C80.595,26.625 80.235,26.168 79.791,25.799C78.641,24.968 77.223,24.579 75.803,24.705C74.565,24.829 73.419,25.403 72.585,26.315C72.183,26.766 71.91,27.315 71.796,27.905C71.681,28.495 71.729,29.105 71.933,29.671C72.363,30.692 73.413,31.392 74.815,31.566C75.086,31.564 75.352,31.647 75.573,31.802C75.794,31.959 75.96,32.179 76.046,32.434C76.091,32.777 76.031,33.126 75.876,33.436C75.72,33.746 75.475,34.003 75.172,34.176C74.137,34.917 71.628,35.249 69.305,33.665C68.443,33.06 67.715,32.288 67.163,31.397C66.612,30.506 66.249,29.514 66.098,28.48C65.865,26.897 66.02,24.47 68.105,21.916C70.79,18.627 75.115,17.283 79.662,18.341C83.703,19.275 88.457,22.907 88.534,30.089C88.643,39.024 80.728,45.414 74.954,50.118L74.256,50.691C68.219,55.574 55.663,65.734 52.766,75.532C49.45,86.703 53.206,95.862 63.35,101.312C67.976,103.8 71.809,102.462 76.662,100.766C79.709,99.698 83.149,98.493 87.448,97.962C87.603,97.962 87.727,98.953 87.583,98.983C83.387,99.494 80.004,100.684 77.003,101.736C71.912,103.519 67.888,104.924 62.859,102.247C52.248,96.501 48.296,86.928 51.762,75.246C54.763,65.147 67.484,54.849 73.599,49.904L74.313,49.327C79.931,44.775 87.619,38.538 87.52,30.095C87.443,23.51 83.118,20.19 79.445,19.367C75.306,18.407 71.354,19.618 68.922,22.596C67.075,24.864 66.93,26.989 67.137,28.373C67.273,29.267 67.587,30.124 68.062,30.896C68.538,31.668 69.164,32.339 69.905,32.868C71.793,34.14 73.811,33.926 74.561,33.379C74.928,33.119 75.079,32.817 75.042,32.72C75.006,32.623 74.928,32.613 74.665,32.582C72.885,32.368 71.535,31.448 70.961,30.059C70.681,29.321 70.609,28.523 70.753,27.748C70.897,26.974 71.251,26.252 71.778,25.661C72.777,24.544 74.163,23.835 75.663,23.674C77.364,23.513 79.066,23.98 80.438,24.986C80.995,25.44 81.447,26.006 81.766,26.645C82.086,27.284 82.264,27.983 82.29,28.695C82.74,34.825 76.113,40.055 71.09,43.437C70.521,43.82 69.931,44.219 69.321,44.622C60.221,50.691 47.758,59.022 43.092,72.232C41.384,77.059 39.838,84.44 42.14,92.153C44.38,99.678 49.745,105.695 58.079,110.032C68.11,115.253 75.632,112.305 82.911,109.45C86.279,108.132 89.455,106.896 92.777,106.487C93.056,106.446 93.185,107.463 92.901,107.509C89.714,107.892 86.594,109.113 83.294,110.41C78.571,112.264 73.459,114.277 67.494,113.863Z" style="fill:rgb(10,44,55);fill-rule:nonzero;"/>
                <path d="M87.721,98.269C91.911,95.618 93.862,90.954 94.695,88.497C98.166,78.21 100.266,76.468 100.463,76.304C100.659,76.141 101.347,76.897 101.135,77.081C101.047,77.162 99.304,78.869 95.962,88.829C95.088,91.419 92.734,96.446 88.135,99.25C88.026,99.281 87.483,98.418 87.721,98.269Z" style="fill:rgb(10,44,55);fill-rule:nonzero;"/>
                <path d="M116.073,102.583C115.995,106.374 117.826,119.558 129.42,119.047C137.697,118.684 141.696,108.616 141.438,99.605C141.236,92.403 138.24,86.247 136.989,82.273C135.333,77.027 135.726,73.886 138.659,70.07C139.611,68.824 139.415,67.986 137.863,68.905C131.929,72.435 131.298,78.968 132.86,83.816C135.333,91.504 135.783,95.703 135.571,99.278C135.23,105.086 131.738,111.655 128.101,111.15C124.95,110.705 123.543,106.389 125.783,93.731C127.407,84.536 126.637,81.236 126.637,81.236L117.537,90.196L116.073,102.583Z" style="fill:rgb(3,74,97);fill-rule:nonzero;"/>
                <path d="M121.944,91.739C122.737,87.362 120.11,83.236 116.077,82.524C112.044,81.812 108.131,84.783 107.339,89.159C106.546,93.536 109.173,97.661 113.206,98.374C117.239,99.086 121.151,96.115 121.944,91.739Z" style="fill:white;fill-rule:nonzero;"/>
                <path d="M113.92,98.856C113.66,98.84 113.401,98.809 113.144,98.764C112.089,98.567 111.086,98.159 110.196,97.565C109.306,96.971 108.549,96.204 107.971,95.311C106.803,93.444 106.384,91.214 106.797,89.058C107.624,84.461 111.929,81.396 116.166,82.157C120.403,82.918 123.32,87.316 122.487,91.893C122.117,94.058 120.939,96.007 119.187,97.359C117.673,98.471 115.801,99.003 113.92,98.856ZM115.333,82.831C111.763,82.586 108.437,85.324 107.728,89.237C107.349,91.206 107.731,93.243 108.799,94.948C109.282,95.744 109.932,96.429 110.706,96.956C111.479,97.482 112.358,97.839 113.284,98.002C114.209,98.165 115.159,98.129 116.069,97.899C116.98,97.668 117.829,97.247 118.561,96.664C120.159,95.429 121.232,93.649 121.572,91.673C122.327,87.51 119.833,83.577 116.016,82.903C115.789,82.866 115.561,82.843 115.333,82.831Z" style="fill:rgb(10,44,55);fill-rule:nonzero;"/>
                <path d="M117.882,91.74C118.396,88.978 117.393,86.482 115.643,86.165C113.893,85.847 112.058,87.829 111.545,90.591C111.031,93.353 112.033,95.849 113.783,96.167C115.533,96.484 117.368,94.502 117.882,91.74Z" style="fill:rgb(10,44,55);fill-rule:nonzero;"/>
                <path d="M116.705,89.319C116.864,88.438 116.453,87.629 115.786,87.512C115.12,87.394 114.45,88.012 114.291,88.892C114.131,89.773 114.542,90.582 115.209,90.7C115.875,90.817 116.545,90.199 116.705,89.319Z" style="fill:white;fill-rule:nonzero;"/>
                <path d="M109.062,103.452C105.875,110.19 99.926,117.285 87.23,118.353C69.786,119.824 59.268,107.682 57.375,99.156C55.695,91.228 56.999,82.967 61.043,75.919C64.902,69.126 70.091,64.308 76.785,58.337C81.959,53.74 84.928,50.757 86.754,47.017C89.548,41.281 89.564,38.625 93.702,33.123C98.203,27.152 105.534,25.66 110.448,27.898C111.193,28.24 111.612,28.996 110.216,29.144C106.925,29.502 100.728,30.722 97.505,37.113C95.115,41.848 94.711,46.047 93.221,49.883C91.276,54.92 88.131,58.639 82.595,63.777C76.718,69.238 71.121,76.635 68.829,82.422C67.086,86.823 66.569,91.605 67.334,96.27C68.244,101.491 73.945,107.089 81.467,107.953C93.113,109.291 97.132,101.312 98.72,99.294L109.062,103.452Z" style="fill:rgb(3,74,97);fill-rule:nonzero;"/>
                <path d="M91.51,114.369C79.094,116.305 69.611,111.335 66.196,107.902C55.007,96.665 57.422,86.499 58.167,84.635C58.167,84.635 52.409,99.305 63.791,110.222C72.586,118.64 85.576,119.896 94.272,117.005L91.51,114.369Z" style="fill:rgb(10,44,55);fill-rule:nonzero;"/>
                <path d="M110.758,28.92C107.959,28.164 102.729,28.245 97.457,33.134C94.452,35.923 92.853,42.65 90.38,49.807C88.311,55.732 83.81,59.339 80.742,62.291C72.843,69.887 68.362,78.535 67.457,85.921C67.457,85.921 70.204,74.964 85.466,60.682C93.422,53.245 93.888,46.829 95.704,40.627C97.519,34.426 100.484,31.867 104.767,30.569C109.051,29.272 110.758,28.92 110.758,28.92Z" style="fill:rgb(10,44,55);fill-rule:nonzero;"/>
                <path d="M100.361,96.811C100.495,97.889 99.326,100.162 97.484,102.303C94.38,105.878 89.336,109.383 81.416,108.473C73.495,107.564 67.748,101.603 66.832,96.372C66.055,91.612 66.591,86.733 68.384,82.248C70.64,76.558 76.092,69.166 82.274,63.419C87.412,58.653 90.774,54.879 92.771,49.714C93.316,48.192 93.777,46.642 94.153,45.071C94.814,42.252 95.782,39.512 97.039,36.898C99.455,32.101 103.873,29.328 110.159,28.648C110.291,28.636 110.421,28.61 110.547,28.572C110.453,28.488 110.347,28.419 110.231,28.367C105.808,26.324 98.659,27.412 94.116,33.44C92.1,36.087 90.512,39.027 89.409,42.154C88.839,43.61 88.188,45.26 87.22,47.262C85.394,51.007 82.512,53.944 77.137,58.745C70.122,64.993 65.244,69.59 61.493,76.169C57.524,83.113 56.237,91.241 57.872,99.049C58.906,103.692 62.233,108.57 66.78,112.105C70.738,115.17 77.489,118.659 87.179,117.847C97.334,116.989 104.339,112.228 108.581,103.237L109.517,103.667C105.104,113.004 97.826,117.969 87.272,118.863C85.538,119.013 83.794,119.029 82.057,118.909C67.51,117.888 58.663,107.37 56.868,99.268C55.176,91.217 56.495,82.833 60.583,75.669C64.416,68.931 69.346,64.283 76.434,57.959C81.711,53.254 84.53,50.383 86.263,46.797C87.215,44.846 87.815,43.283 88.426,41.771C89.564,38.552 91.204,35.529 93.289,32.811C96.91,27.989 104.246,24.459 110.671,27.422C111.344,27.734 111.706,28.255 111.644,28.75C111.587,29.098 111.302,29.532 110.273,29.644C104.36,30.283 100.216,32.867 97.965,37.306C96.739,39.869 95.795,42.554 95.151,45.316C94.755,46.917 94.272,48.497 93.702,50.046C91.633,55.394 88.193,59.241 82.947,64.129C76.961,69.692 71.478,77.109 69.31,82.585C67.592,86.898 67.086,91.589 67.846,96.163C68.694,101.026 74.054,106.563 81.524,107.401C88.834,108.238 93.516,105.271 96.672,101.593C98.037,100.106 99.271,98.506 100.361,96.811Z" style="fill:rgb(10,44,55);fill-rule:nonzero;"/>
                <path d="M108.452,99.728C106.828,104.325 104.437,107.181 101.623,108.355C97.485,110.082 92.192,107.983 88.871,101.562C84.67,93.435 85.11,81.195 94.401,69.784C98.804,64.379 100.232,61.325 101.577,57.115C103.077,52.437 102.839,47.563 100.904,44.764C100.263,43.829 99.207,43.436 99.404,45.638C99.666,48.694 99.09,51.764 97.738,54.526C95.229,59.486 93.423,60.768 88.679,65.534C81.38,72.864 72.875,84.552 77.815,101.102C82.208,115.783 96.548,120.978 105.4,117.908C113.33,115.154 115.007,107.109 116.057,102.583L108.452,99.728Z" style="fill:rgb(3,74,97);fill-rule:nonzero;"/>
                <path d="M115.88,102.16C115.88,102.16 109.258,116.754 96.702,115.156C81.022,113.158 76.759,97.277 76.475,94.34C76.475,94.34 77.69,112.806 92.812,117.413C114.959,124.166 115.88,102.16 115.88,102.16Z" style="fill:rgb(10,44,55);fill-rule:nonzero;"/>
                <path d="M86.827,82.871C89.595,75.52 94.22,69.253 97.898,64.957C101.576,60.661 102.14,55.251 102.497,51.818C101.685,56.671 99.559,60.502 96.377,64.19C93.196,67.878 88.265,73.676 86.827,82.871Z" style="fill:rgb(10,44,55);fill-rule:nonzero;"/>
                <path d="M128.023,111.369C124.676,111.987 121.054,102.737 122.275,94.201C123.175,88.01 121.479,81.236 121.479,81.236L126.559,81.456C126.559,81.456 127.076,86.723 125.653,94.911C123.822,105.423 123.274,109.306 128.023,111.369Z" style="fill:rgb(10,44,55);fill-rule:nonzero;"/>
                <path d="M141.303,101.977C140.693,104.781 137.335,114.124 131.707,116.039C126.078,117.955 122.131,116.657 119.647,114.859C119.647,114.859 125.633,121.5 133.284,118.241C140.936,114.982 141.303,101.977 141.303,101.977Z" style="fill:rgb(10,44,55);fill-rule:nonzero;"/>
                <path d="M115.969,102.494C115.226,105.586 114.057,108.563 112.493,111.341C110.923,114.185 108.343,116.356 105.25,117.435C100.92,118.937 95.42,118.355 90.516,115.903C84.65,112.94 80.325,107.643 78.333,100.987C74.567,88.416 78.074,76.948 89.052,65.924C89.833,65.138 90.532,64.448 91.173,63.82C94.438,60.612 96.072,58.998 98.209,54.783C99.58,52.071 100.18,48.383 100.045,44.751C102.348,46.478 102.554,52.413 101.08,57.011C99.72,61.256 98.312,64.208 93.993,69.516C83.936,81.862 84.515,94.311 88.405,101.84C92.12,109.022 97.821,110.524 101.82,108.874C104.857,107.602 108.183,102.862 108.199,99.679C106.522,103.597 104.179,106.769 101.416,107.924C97.857,109.41 92.741,107.959 89.326,101.365C85.581,94.122 85.048,82.112 94.8,70.144C99.197,64.744 100.697,61.583 102.068,57.307C103.62,52.444 103.429,47.341 101.132,44.536C100.547,43.821 100.133,43.382 99.606,43.602C98.907,43.898 99.125,45.293 99.088,45.742C99.026,48.725 98.535,51.795 97.247,54.344C95.177,58.431 93.589,59.963 90.407,63.115C89.766,63.743 89.062,64.433 88.276,65.219C77.045,76.498 73.46,88.298 77.334,101.263C79.404,108.189 83.92,113.706 90.04,116.797C92.741,118.175 95.695,119.004 98.726,119.233C101.046,119.419 103.381,119.136 105.586,118.401C112.13,116.133 114.541,110.452 115.798,105.886C116.285,109.231 117.609,113.548 120.568,116.424C122.506,118.297 125.071,119.405 127.78,119.54C128.335,119.571 128.891,119.571 129.446,119.54C137.93,119.182 142.224,108.981 141.955,99.572C141.794,93.922 139.916,88.845 138.546,85.111C138.142,84.023 137.764,82.991 137.48,82.102C135.861,76.994 136.388,73.791 139.032,70.093C139.704,69.153 139.885,68.622 139.549,68.254C139.213,67.886 138.556,68.049 137.64,68.591C134.867,70.246 133.181,72.361 132.343,74.787C131.373,77.779 131.384,80.997 132.374,83.982C135.038,92.262 135.24,96.241 135.059,99.26C134.816,103.413 132.896,107.944 130.594,109.809C130.275,110.11 129.894,110.34 129.478,110.485C129.061,110.629 128.618,110.684 128.178,110.646C127.824,110.603 127.483,110.486 127.178,110.302C126.873,110.119 126.611,109.874 126.409,109.584C124.857,107.479 125.059,102.218 126.538,93.866C128.157,84.697 127.18,81.269 127.143,81.131C127.081,80.856 126.073,81.08 126.135,81.356C126.135,81.387 126.854,84.743 125.281,93.652C123.708,102.56 123.801,107.781 125.571,110.187C125.855,110.588 126.22,110.927 126.644,111.181C127.068,111.436 127.541,111.6 128.033,111.663C128.615,111.72 129.203,111.655 129.758,111.472C130.312,111.289 130.821,110.992 131.251,110.6C133.791,108.557 135.83,103.801 136.093,99.317C136.28,96.175 136.093,92.109 133.357,83.67C132.427,80.868 132.427,77.845 133.357,75.043C134.341,72.464 136.237,70.325 138.696,69.02C137.2,70.966 135.886,73.505 135.592,75.487C135.297,77.469 135.623,79.691 136.481,82.429C136.771,83.338 137.154,84.38 137.563,85.494C138.985,89.35 140.755,94.178 140.91,99.633C141.168,108.557 137.216,118.222 129.389,118.533C126.114,118.671 123.388,117.711 121.282,115.683C119.972,114.367 118.944,112.803 118.261,111.086C117.162,108.319 116.393,105.436 115.969,102.494Z" style="fill:rgb(10,44,55);fill-rule:nonzero;"/>
                <path d="M126.636,81.236C132.508,64.823 129.021,47.568 129.021,47.568C132.399,45.637 135.87,40.033 135.87,40.033C133.625,29.776 126.098,21.572 126.098,21.572C126.098,21.572 114.489,28.949 109.253,37.975C109.253,37.975 110.805,42.889 112.28,44.917C112.28,44.917 102.135,61.641 100.795,76.705C100.795,76.689 114.359,80.091 126.636,81.236Z" style="fill:rgb(3,74,97);fill-rule:nonzero;"/>
                <path d="M126.325,81.254L121.529,80.569C126.951,68.596 125.911,52.725 125.477,48.235C125.436,47.864 125.478,47.489 125.599,47.136C125.721,46.783 125.919,46.461 126.18,46.192C128.374,43.637 130.95,40.445 131.322,38.585C131.695,36.726 126.046,21.928 126.046,21.928C126.046,21.928 134.178,31.143 136.242,39.965C136.242,39.965 131.881,45.865 129.232,47.806C129.232,47.801 132.093,68.192 126.325,81.254Z" style="fill:rgb(10,44,55);fill-rule:nonzero;"/>
                <path d="M126.6,81.748C113.056,81.125 100.821,77.227 100.687,77.191C100.568,77.161 100.464,77.091 100.393,76.993C100.322,76.895 100.289,76.775 100.299,76.655C101.463,60.135 110.35,47.206 111.68,44.928C110.462,43.001 109.468,40.945 108.716,38.798C108.594,38.48 108.555,38.136 108.602,37.799C108.649,37.462 108.78,37.142 108.985,36.867C109.553,35.955 110.173,35.075 110.842,34.231C112.314,32.365 113.926,30.609 115.663,28.98C118.768,26.078 122.131,23.458 125.71,21.15C125.763,21.096 125.828,21.055 125.899,21.03C125.97,21.004 126.046,20.994 126.122,21C126.197,21.006 126.27,21.029 126.336,21.066C126.402,21.104 126.458,21.155 126.502,21.216C128.949,24.002 131.078,27.046 132.849,30.293C133.754,31.93 134.548,33.625 135.224,35.366C135.771,36.756 136.222,38.181 136.574,39.631C136.637,39.828 136.652,40.037 136.619,40.241C136.585,40.444 136.505,40.638 136.383,40.806C135.591,42.047 132.648,46.067 129.761,47.891C130.211,50.445 133.051,66.05 127.133,81.405C127.095,81.513 127.022,81.605 126.926,81.667C126.829,81.729 126.715,81.757 126.6,81.748ZM128.535,47.467C131.877,44.994 135.26,40.264 135.317,39.943C135.374,39.621 133.284,33.608 131.882,30.967C129.518,26.523 126.295,22.314 125.974,22.284C125.653,22.253 120.609,25.956 116.553,29.859C114.055,32.26 109.931,37.383 109.828,38.032C109.724,38.681 111.297,42.323 112.896,44.923C112.797,45.086 102.828,61.657 101.364,76.318C103.734,76.89 115.513,79.658 126.29,80.706C131.856,64.707 128.571,47.625 128.535,47.467Z" style="fill:rgb(10,44,55);fill-rule:nonzero;"/>
                <path d="M112.513,39.033C112.916,37.754 113.503,36.538 114.256,35.422C114.992,34.302 115.81,33.237 116.703,32.234C117.586,31.238 118.52,30.286 119.502,29.384C120.483,28.471 121.519,27.618 122.606,26.83C121.809,27.913 120.95,28.924 120.081,29.921L117.464,32.894C116.589,33.869 115.731,34.865 114.877,35.872C114.023,36.878 113.294,37.92 112.513,39.033Z" style="fill:rgb(117,204,199);fill-opacity:0.5;fill-rule:nonzero;"/>
                <path d="M94.557,95.791C95.474,94.616 96.281,93.361 96.967,92.042C97.602,90.716 98.148,89.351 98.602,87.955C99.052,86.54 99.502,85.131 100.077,83.731C100.637,82.307 101.387,80.964 102.306,79.736C102.121,81.235 101.825,82.719 101.422,84.175C101.037,85.635 100.532,87.062 99.911,88.441C99.616,89.14 99.301,89.835 98.944,90.52C98.599,91.211 98.205,91.876 97.764,92.512C96.879,93.767 95.796,94.874 94.557,95.791Z" style="fill:rgb(117,204,199);fill-opacity:0.5;fill-rule:nonzero;"/>
                <path d="M114.462,47.008C113.655,49.174 112.823,51.304 111.984,53.429C111.146,55.554 110.308,57.674 109.512,59.809C108.715,61.944 107.872,64.059 107.08,66.199C106.289,68.34 105.528,70.485 104.628,72.63C104.882,70.336 105.315,68.065 105.921,65.837C106.511,63.608 107.225,61.414 108.058,59.262C108.482,58.19 108.925,57.124 109.387,56.065C109.874,55.043 110.344,53.965 110.883,52.944C111.916,50.875 113.113,48.89 114.462,47.008Z" style="fill:rgb(117,204,199);fill-opacity:0.5;fill-rule:nonzero;"/>
            </g>
        </g>
    </g>
     <g transform="matrix(2.74061,0,0,2.74061,-41.0713,-48.485)" class="trulens-squid-light">
        <g>
            <clipPath id="_clip1">
                <rect x="15" y="18" width="126.97" height="101.576"/>
            </clipPath>
            <g clip-path="url(#_clip1)">
                <path d="M123.693,116.641C121.855,118.123 119.508,118.844 117.143,118.654C114.67,118.414 111.385,117.024 109.688,114.833L113.403,99.432L122.161,100.04L123.693,116.641Z" style="fill:rgb(10,44,55);fill-rule:nonzero;"/>
                <path d="M117.308,119.18L117.096,119.18C114.644,118.94 111.152,117.581 109.279,115.16C109.234,115.107 109.201,115.046 109.181,114.98C109.161,114.914 109.155,114.844 109.162,114.776C109.17,114.707 109.192,114.641 109.227,114.581C109.261,114.521 109.308,114.468 109.363,114.427C109.419,114.385 109.482,114.355 109.55,114.338C109.618,114.321 109.688,114.318 109.757,114.329C109.826,114.339 109.892,114.364 109.952,114.4C110.011,114.437 110.062,114.485 110.102,114.542C111.711,116.621 114.887,117.939 117.194,118.164C119.421,118.337 121.629,117.656 123.361,116.263C123.466,116.176 123.602,116.133 123.739,116.145C123.875,116.156 124.002,116.221 124.09,116.325C124.179,116.428 124.222,116.562 124.21,116.698C124.199,116.833 124.133,116.958 124.028,117.045C122.142,118.569 119.741,119.332 117.308,119.18Z" style="fill:rgb(10,44,55);fill-rule:nonzero;"/>
                <path d="M100.671,77.188C100.671,77.188 98.86,78.689 95.332,89.141C94.039,92.967 91.617,96.803 88.089,99.04C88.089,99.04 86.02,107.724 96.884,110.789C98.474,111.24 100.117,111.273 101.74,111.025C109.05,109.907 115.968,103.086 115.968,103.086L125.674,94.233C127.298,85.039 126.527,81.739 126.527,81.739L115.11,74.531L100.671,77.188Z" style="fill:white;fill-rule:nonzero;"/>
                <path d="M82.698,113.219C76.195,107.702 71.757,106.992 65.181,107.391C59.054,107.83 52.896,107.225 46.976,105.603C37.064,102.778 29.775,97.042 27.473,89.89C23.639,77.963 28.595,68.768 29.102,64.35C29.609,59.931 26.102,57.362 23.526,57.954C20.83,58.572 19.982,61.417 20.504,63.537C20.744,64.539 21.309,65.436 22.113,66.091C22.724,66.602 23.003,67.404 21.73,67.624C20.618,67.808 18.828,67.675 17.224,65.724C13.712,61.417 15.688,54.184 22.537,52.325C27.711,50.93 32.884,53.995 34.788,58.317C36.433,62.117 35.621,67.818 35.021,70.689C34.022,75.46 32.563,86.851 40.965,92.981C42.977,94.447 49.346,97.491 65.569,97.854C73.785,98.033 80.086,98.84 85.104,102.814L82.698,113.219Z" style="fill:white;fill-rule:nonzero;"/>
                <path d="M62.336,107.576C56.831,107.75 42.522,105.563 35.17,100.082C22.941,90.954 27.136,75.104 27.136,75.104C26.65,77.816 29.552,101.012 52.801,101.758L62.336,107.576Z" style="fill:rgb(10,44,55);fill-rule:nonzero;"/>
                <path d="M29.32,64.784C31.793,58.654 25.45,54.532 21.42,57.066C18.43,58.946 17.762,63.834 22.775,67.282C22.775,67.282 18.068,61.939 22.258,58.695C24.053,57.311 25.879,57.944 26.867,58.343C29.909,59.528 29.32,64.784 29.32,64.784Z" style="fill:rgb(10,44,55);fill-rule:nonzero;"/>
                <path d="M82.662,113.73C82.551,113.724 82.445,113.681 82.362,113.607C76.04,108.243 71.798,107.477 65.218,107.922C59.033,108.357 52.818,107.745 46.842,106.113C36.563,103.186 29.325,97.337 26.987,90.063C24.043,80.905 26.205,73.309 27.633,68.282C28.049,66.977 28.369,65.644 28.59,64.293C28.726,63.41 28.642,62.508 28.348,61.664C28.053,60.82 27.556,60.058 26.899,59.445C26.474,59.034 25.957,58.727 25.39,58.55C24.823,58.372 24.221,58.329 23.634,58.423C23.191,58.52 22.772,58.706 22.404,58.969C22.036,59.233 21.728,59.569 21.498,59.956C20.88,61 20.695,62.239 20.98,63.414C21.202,64.304 21.706,65.1 22.419,65.687C22.663,65.85 22.856,66.078 22.974,66.345C23.093,66.612 23.131,66.906 23.086,67.194C22.993,67.526 22.693,67.95 21.793,68.098C20.706,68.272 18.621,68.236 16.8,66.014C15.927,64.92 15.345,63.628 15.106,62.255C14.868,60.882 14.98,59.472 15.435,58.153C16.438,55.088 18.978,52.764 22.403,51.834C28.094,50.301 33.396,53.821 35.264,58.117C37.039,62.204 36.04,68.333 35.528,70.79C34.333,76.491 33.495,86.896 41.275,92.566C42.677,93.588 48.585,96.965 65.59,97.343C74.126,97.532 80.422,98.446 85.44,102.41C85.494,102.452 85.538,102.504 85.571,102.564C85.604,102.623 85.625,102.688 85.632,102.755C85.64,102.822 85.634,102.89 85.614,102.955C85.595,103.02 85.563,103.08 85.521,103.133C85.478,103.185 85.425,103.229 85.365,103.262C85.305,103.294 85.239,103.315 85.171,103.322C85.103,103.329 85.034,103.323 84.969,103.304C84.903,103.286 84.842,103.254 84.789,103.212C79.998,99.422 73.883,98.548 65.564,98.364C48.741,97.986 42.548,94.763 40.67,93.389C32.424,87.376 33.283,76.532 34.524,70.586C35.042,68.236 35.983,62.352 34.322,58.521C32.662,54.689 27.809,51.425 22.677,52.82C19.573,53.653 17.312,55.711 16.418,58.439C16.015,59.603 15.916,60.848 16.127,62.06C16.339,63.272 16.855,64.412 17.628,65.376C19.051,67.107 20.598,67.266 21.648,67.092C21.817,67.085 21.98,67.026 22.113,66.924C22.059,66.74 21.942,66.582 21.782,66.474C20.898,65.748 20.273,64.762 19.997,63.659C19.642,62.221 19.869,60.702 20.629,59.425C20.935,58.928 21.339,58.498 21.817,58.159C22.295,57.82 22.838,57.58 23.412,57.453C24.159,57.314 24.928,57.353 25.657,57.567C26.386,57.78 27.052,58.161 27.602,58.679C28.382,59.401 28.973,60.3 29.325,61.297C29.676,62.294 29.777,63.361 29.62,64.405C29.393,65.815 29.063,67.206 28.632,68.568C27.235,73.472 25.124,80.889 27.975,89.757C30.205,96.699 37.189,102.308 47.116,105.138C52.983,106.731 59.082,107.32 65.15,106.879C71.876,106.45 76.48,107.252 83.035,112.815C83.086,112.859 83.129,112.912 83.16,112.972C83.191,113.032 83.209,113.097 83.214,113.164C83.22,113.231 83.212,113.298 83.191,113.362C83.169,113.425 83.136,113.484 83.092,113.535C83.041,113.599 82.975,113.65 82.901,113.684C82.826,113.717 82.744,113.733 82.662,113.73Z" style="fill:rgb(10,44,55);fill-rule:nonzero;"/>
                <path d="M92.828,107.007C82.435,108.259 72.751,118.245 57.841,110.496C39.336,100.867 38.229,84.444 42.606,72.062C47.644,57.785 61.861,49.029 70.8,43.027C77.008,38.834 82.182,34.057 81.773,28.725C81.452,24.342 76.936,24.005 75.731,24.168C74.362,24.311 73.097,24.952 72.182,25.966C70.242,28.382 71.245,31.616 74.768,32.04C75.984,32.183 75.725,33.174 74.908,33.756C73.992,34.41 71.726,34.67 69.636,33.245C66.874,31.381 64.929,26.666 68.545,22.237C71.473,18.661 75.932,17.987 79.58,18.83C83.516,19.734 87.976,23.233 88.059,30.068C88.162,38.782 80.299,45.137 74.608,49.745C68.917,54.352 55.353,65.059 52.249,75.388C49.145,85.716 51.788,95.682 63.113,101.771C70.981,106.001 76.429,99.728 87.981,98.42L92.828,107.007Z" style="fill:white;fill-rule:nonzero;"/>
                <path d="M83.417,104.966C83.417,104.966 71.348,115.392 54.317,103.852C44.425,97.176 40.866,84.916 41.316,76.365C41.316,76.365 36.733,91.966 48.342,103.75C59.951,115.535 73.722,115.351 84.891,109.558L83.417,104.966Z" style="fill:rgb(10,44,55);fill-rule:nonzero;"/>
                <path d="M81.7,29.145C82.419,25.058 79.563,21.963 75.078,22.233C71.421,22.453 68.456,26.953 71.162,30.273C71.162,30.273 69.61,25.64 75.301,24.333C80.37,23.158 81.7,29.145 81.7,29.145Z" style="fill:rgb(10,44,55);fill-rule:nonzero;"/>
                <path d="M87.696,33.65C84.742,38.585 78.047,44.781 73.014,48.219C67.628,51.897 51.286,64.601 51.461,78.306C51.461,78.306 51.461,72.937 58.559,64.575C65.45,56.402 76.469,48.571 79.129,45.946C87.68,37.517 87.696,33.65 87.696,33.65Z" style="fill:rgb(10,44,55);fill-rule:nonzero;"/>
                <path d="M67.494,113.863C64.025,113.598 60.653,112.611 57.598,110.967C49.005,106.477 43.454,100.24 41.146,92.46C38.767,84.471 40.36,76.865 42.119,71.895C46.894,58.368 59.522,49.929 68.746,43.8L70.505,42.615C78.157,37.466 81.576,33.073 81.261,28.792C81.242,28.219 81.102,27.657 80.848,27.141C80.595,26.625 80.235,26.168 79.791,25.799C78.641,24.968 77.223,24.579 75.803,24.705C74.565,24.829 73.419,25.403 72.585,26.315C72.183,26.766 71.91,27.315 71.796,27.905C71.681,28.495 71.729,29.105 71.933,29.671C72.363,30.692 73.413,31.392 74.815,31.566C75.086,31.564 75.352,31.647 75.573,31.802C75.794,31.959 75.96,32.179 76.046,32.434C76.091,32.777 76.031,33.126 75.876,33.436C75.72,33.746 75.475,34.003 75.172,34.176C74.137,34.917 71.628,35.249 69.305,33.665C68.443,33.06 67.715,32.288 67.163,31.397C66.612,30.506 66.249,29.514 66.098,28.48C65.865,26.897 66.02,24.47 68.105,21.916C70.79,18.627 75.115,17.283 79.662,18.341C83.703,19.275 88.457,22.907 88.534,30.089C88.643,39.024 80.728,45.414 74.954,50.118L74.256,50.691C68.219,55.574 55.663,65.734 52.766,75.532C49.45,86.703 53.206,95.862 63.35,101.312C67.976,103.8 71.809,102.462 76.662,100.766C79.709,99.698 83.149,98.493 87.448,97.962C87.603,97.962 87.727,98.953 87.583,98.983C83.387,99.494 80.004,100.684 77.003,101.736C71.912,103.519 67.888,104.924 62.859,102.247C52.248,96.501 48.296,86.928 51.762,75.246C54.763,65.147 67.484,54.849 73.599,49.904L74.313,49.327C79.931,44.775 87.619,38.538 87.52,30.095C87.443,23.51 83.118,20.19 79.445,19.367C75.306,18.407 71.354,19.618 68.922,22.596C67.075,24.864 66.93,26.989 67.137,28.373C67.273,29.267 67.587,30.124 68.062,30.896C68.538,31.668 69.164,32.339 69.905,32.868C71.793,34.14 73.811,33.926 74.561,33.379C74.928,33.119 75.079,32.817 75.042,32.72C75.006,32.623 74.928,32.613 74.665,32.582C72.885,32.368 71.535,31.448 70.961,30.059C70.681,29.321 70.609,28.523 70.753,27.748C70.897,26.974 71.251,26.252 71.778,25.661C72.777,24.544 74.163,23.835 75.663,23.674C77.364,23.513 79.066,23.98 80.438,24.986C80.995,25.44 81.447,26.006 81.766,26.645C82.086,27.284 82.264,27.983 82.29,28.695C82.74,34.825 76.113,40.055 71.09,43.437C70.521,43.82 69.931,44.219 69.321,44.622C60.221,50.691 47.758,59.022 43.092,72.232C41.384,77.059 39.838,84.44 42.14,92.153C44.38,99.678 49.745,105.695 58.079,110.032C68.11,115.253 75.632,112.305 82.911,109.45C86.279,108.132 89.455,106.896 92.777,106.487C93.056,106.446 93.185,107.463 92.901,107.509C89.714,107.892 86.594,109.113 83.294,110.41C78.571,112.264 73.459,114.277 67.494,113.863Z" style="fill:rgb(10,44,55);fill-rule:nonzero;"/>
                <path d="M87.721,98.269C91.911,95.618 93.862,90.954 94.695,88.497C98.166,78.21 100.266,76.468 100.463,76.304C100.659,76.141 101.347,76.897 101.135,77.081C101.047,77.162 99.304,78.869 95.962,88.829C95.088,91.419 92.734,96.446 88.135,99.25C88.026,99.281 87.483,98.418 87.721,98.269Z" style="fill:rgb(10,44,55);fill-rule:nonzero;"/>
                <path d="M116.073,102.583C115.995,106.374 117.826,119.558 129.42,119.047C137.697,118.684 141.696,108.616 141.438,99.605C141.236,92.403 138.24,86.247 136.989,82.273C135.333,77.027 135.726,73.886 138.659,70.07C139.611,68.824 139.415,67.986 137.863,68.905C131.929,72.435 131.298,78.968 132.86,83.816C135.333,91.504 135.783,95.703 135.571,99.278C135.23,105.086 131.738,111.655 128.101,111.15C124.95,110.705 123.543,106.389 125.783,93.731C127.407,84.536 126.637,81.236 126.637,81.236L117.537,90.196L116.073,102.583Z" style="fill:white;fill-rule:nonzero;"/>
                <path d="M121.944,91.739C122.737,87.362 120.11,83.236 116.077,82.524C112.044,81.812 108.131,84.783 107.339,89.159C106.546,93.536 109.173,97.661 113.206,98.374C117.239,99.086 121.151,96.115 121.944,91.739Z" style="fill:white;fill-rule:nonzero;"/>
                <path d="M113.92,98.856C113.66,98.84 113.401,98.809 113.144,98.764C112.089,98.567 111.086,98.159 110.196,97.565C109.306,96.971 108.549,96.204 107.971,95.311C106.803,93.444 106.384,91.214 106.797,89.058C107.624,84.461 111.929,81.396 116.166,82.157C120.403,82.918 123.32,87.316 122.487,91.893C122.117,94.058 120.939,96.007 119.187,97.359C117.673,98.471 115.801,99.003 113.92,98.856ZM115.333,82.831C111.763,82.586 108.437,85.324 107.728,89.237C107.349,91.206 107.731,93.243 108.799,94.948C109.282,95.744 109.932,96.429 110.706,96.956C111.479,97.482 112.358,97.839 113.284,98.002C114.209,98.165 115.159,98.129 116.069,97.899C116.98,97.668 117.829,97.247 118.561,96.664C120.159,95.429 121.232,93.649 121.572,91.673C122.327,87.51 119.833,83.577 116.016,82.903C115.789,82.866 115.561,82.843 115.333,82.831Z" style="fill:rgb(10,44,55);fill-rule:nonzero;"/>
                <path d="M117.882,91.74C118.396,88.978 117.393,86.482 115.643,86.165C113.893,85.847 112.058,87.829 111.545,90.591C111.031,93.353 112.033,95.849 113.783,96.167C115.533,96.484 117.368,94.502 117.882,91.74Z" style="fill:rgb(10,44,55);fill-rule:nonzero;"/>
                <path d="M116.705,89.319C116.864,88.438 116.453,87.629 115.786,87.512C115.12,87.394 114.45,88.012 114.291,88.892C114.131,89.773 114.542,90.582 115.209,90.7C115.875,90.817 116.545,90.199 116.705,89.319Z" style="fill:white;fill-rule:nonzero;"/>
                <path d="M109.062,103.452C105.875,110.19 99.926,117.285 87.23,118.353C69.786,119.824 59.268,107.682 57.375,99.156C55.695,91.228 56.999,82.967 61.043,75.919C64.902,69.126 70.091,64.308 76.785,58.337C81.959,53.74 84.928,50.757 86.754,47.017C89.548,41.281 89.564,38.625 93.702,33.123C98.203,27.152 105.534,25.66 110.448,27.898C111.193,28.24 111.612,28.996 110.216,29.144C106.925,29.502 100.728,30.722 97.505,37.113C95.115,41.848 94.711,46.047 93.221,49.883C91.276,54.92 88.131,58.639 82.595,63.777C76.718,69.238 71.121,76.635 68.829,82.422C67.086,86.823 66.569,91.605 67.334,96.27C68.244,101.491 73.945,107.089 81.467,107.953C93.113,109.291 97.132,101.312 98.72,99.294L109.062,103.452Z" style="fill:white;fill-rule:nonzero;"/>
                <path d="M91.51,114.369C79.094,116.305 69.611,111.335 66.196,107.902C55.007,96.665 57.422,86.499 58.167,84.635C58.167,84.635 52.409,99.305 63.791,110.222C72.586,118.64 85.576,119.896 94.272,117.005L91.51,114.369Z" style="fill:rgb(10,44,55);fill-rule:nonzero;"/>
                <path d="M110.758,28.92C107.959,28.164 102.729,28.245 97.457,33.134C94.452,35.923 92.853,42.65 90.38,49.807C88.311,55.732 83.81,59.339 80.742,62.291C72.843,69.887 68.362,78.535 67.457,85.921C67.457,85.921 70.204,74.964 85.466,60.682C93.422,53.245 93.888,46.829 95.704,40.627C97.519,34.426 100.484,31.867 104.767,30.569C109.051,29.272 110.758,28.92 110.758,28.92Z" style="fill:rgb(10,44,55);fill-rule:nonzero;"/>
                <path d="M100.361,96.811C100.495,97.889 99.326,100.162 97.484,102.303C94.38,105.878 89.336,109.383 81.416,108.473C73.495,107.564 67.748,101.603 66.832,96.372C66.055,91.612 66.591,86.733 68.384,82.248C70.64,76.558 76.092,69.166 82.274,63.419C87.412,58.653 90.774,54.879 92.771,49.714C93.316,48.192 93.777,46.642 94.153,45.071C94.814,42.252 95.782,39.512 97.039,36.898C99.455,32.101 103.873,29.328 110.159,28.648C110.291,28.636 110.421,28.61 110.547,28.572C110.453,28.488 110.347,28.419 110.231,28.367C105.808,26.324 98.659,27.412 94.116,33.44C92.1,36.087 90.512,39.027 89.409,42.154C88.839,43.61 88.188,45.26 87.22,47.262C85.394,51.007 82.512,53.944 77.137,58.745C70.122,64.993 65.244,69.59 61.493,76.169C57.524,83.113 56.237,91.241 57.872,99.049C58.906,103.692 62.233,108.57 66.78,112.105C70.738,115.17 77.489,118.659 87.179,117.847C97.334,116.989 104.339,112.228 108.581,103.237L109.517,103.667C105.104,113.004 97.826,117.969 87.272,118.863C85.538,119.013 83.794,119.029 82.057,118.909C67.51,117.888 58.663,107.37 56.868,99.268C55.176,91.217 56.495,82.833 60.583,75.669C64.416,68.931 69.346,64.283 76.434,57.959C81.711,53.254 84.53,50.383 86.263,46.797C87.215,44.846 87.815,43.283 88.426,41.771C89.564,38.552 91.204,35.529 93.289,32.811C96.91,27.989 104.246,24.459 110.671,27.422C111.344,27.734 111.706,28.255 111.644,28.75C111.587,29.098 111.302,29.532 110.273,29.644C104.36,30.283 100.216,32.867 97.965,37.306C96.739,39.869 95.795,42.554 95.151,45.316C94.755,46.917 94.272,48.497 93.702,50.046C91.633,55.394 88.193,59.241 82.947,64.129C76.961,69.692 71.478,77.109 69.31,82.585C67.592,86.898 67.086,91.589 67.846,96.163C68.694,101.026 74.054,106.563 81.524,107.401C88.834,108.238 93.516,105.271 96.672,101.593C98.037,100.106 99.271,98.506 100.361,96.811Z" style="fill:rgb(10,44,55);fill-rule:nonzero;"/>
                <path d="M108.452,99.728C106.828,104.325 104.437,107.181 101.623,108.355C97.485,110.082 92.192,107.983 88.871,101.562C84.67,93.435 85.11,81.195 94.401,69.784C98.804,64.379 100.232,61.325 101.577,57.115C103.077,52.437 102.839,47.563 100.904,44.764C100.263,43.829 99.207,43.436 99.404,45.638C99.666,48.694 99.09,51.764 97.738,54.526C95.229,59.486 93.423,60.768 88.679,65.534C81.38,72.864 72.875,84.552 77.815,101.102C82.208,115.783 96.548,120.978 105.4,117.908C113.33,115.154 115.007,107.109 116.057,102.583L108.452,99.728Z" style="fill:white;fill-rule:nonzero;"/>
                <path d="M115.88,102.16C115.88,102.16 109.258,116.754 96.702,115.156C81.022,113.158 76.759,97.277 76.475,94.34C76.475,94.34 77.69,112.806 92.812,117.413C114.959,124.166 115.88,102.16 115.88,102.16Z" style="fill:rgb(10,44,55);fill-rule:nonzero;"/>
                <path d="M86.827,82.871C89.595,75.52 94.22,69.253 97.898,64.957C101.576,60.661 102.14,55.251 102.497,51.818C101.685,56.671 99.559,60.502 96.377,64.19C93.196,67.878 88.265,73.676 86.827,82.871Z" style="fill:rgb(10,44,55);fill-rule:nonzero;"/>
                <path d="M128.023,111.369C124.676,111.987 121.054,102.737 122.275,94.201C123.175,88.01 121.479,81.236 121.479,81.236L126.559,81.456C126.559,81.456 127.076,86.723 125.653,94.911C123.822,105.423 123.274,109.306 128.023,111.369Z" style="fill:rgb(10,44,55);fill-rule:nonzero;"/>
                <path d="M141.303,101.977C140.693,104.781 137.335,114.124 131.707,116.039C126.078,117.955 122.131,116.657 119.647,114.859C119.647,114.859 125.633,121.5 133.284,118.241C140.936,114.982 141.303,101.977 141.303,101.977Z" style="fill:rgb(10,44,55);fill-rule:nonzero;"/>
                <path d="M115.969,102.494C115.226,105.586 114.057,108.563 112.493,111.341C110.923,114.185 108.343,116.356 105.25,117.435C100.92,118.937 95.42,118.355 90.516,115.903C84.65,112.94 80.325,107.643 78.333,100.987C74.567,88.416 78.074,76.948 89.052,65.924C89.833,65.138 90.532,64.448 91.173,63.82C94.438,60.612 96.072,58.998 98.209,54.783C99.58,52.071 100.18,48.383 100.045,44.751C102.348,46.478 102.554,52.413 101.08,57.011C99.72,61.256 98.312,64.208 93.993,69.516C83.936,81.862 84.515,94.311 88.405,101.84C92.12,109.022 97.821,110.524 101.82,108.874C104.857,107.602 108.183,102.862 108.199,99.679C106.522,103.597 104.179,106.769 101.416,107.924C97.857,109.41 92.741,107.959 89.326,101.365C85.581,94.122 85.048,82.112 94.8,70.144C99.197,64.744 100.697,61.583 102.068,57.307C103.62,52.444 103.429,47.341 101.132,44.536C100.547,43.821 100.133,43.382 99.606,43.602C98.907,43.898 99.125,45.293 99.088,45.742C99.026,48.725 98.535,51.795 97.247,54.344C95.177,58.431 93.589,59.963 90.407,63.115C89.766,63.743 89.062,64.433 88.276,65.219C77.045,76.498 73.46,88.298 77.334,101.263C79.404,108.189 83.92,113.706 90.04,116.797C92.741,118.175 95.695,119.004 98.726,119.233C101.046,119.419 103.381,119.136 105.586,118.401C112.13,116.133 114.541,110.452 115.798,105.886C116.285,109.231 117.609,113.548 120.568,116.424C122.506,118.297 125.071,119.405 127.78,119.54C128.335,119.571 128.891,119.571 129.446,119.54C137.93,119.182 142.224,108.981 141.955,99.572C141.794,93.922 139.916,88.845 138.546,85.111C138.142,84.023 137.764,82.991 137.48,82.102C135.861,76.994 136.388,73.791 139.032,70.093C139.704,69.153 139.885,68.622 139.549,68.254C139.213,67.886 138.556,68.049 137.64,68.591C134.867,70.246 133.181,72.361 132.343,74.787C131.373,77.779 131.384,80.997 132.374,83.982C135.038,92.262 135.24,96.241 135.059,99.26C134.816,103.413 132.896,107.944 130.594,109.809C130.275,110.11 129.894,110.34 129.478,110.485C129.061,110.629 128.618,110.684 128.178,110.646C127.824,110.603 127.483,110.486 127.178,110.302C126.873,110.119 126.611,109.874 126.409,109.584C124.857,107.479 125.059,102.218 126.538,93.866C128.157,84.697 127.18,81.269 127.143,81.131C127.081,80.856 126.073,81.08 126.135,81.356C126.135,81.387 126.854,84.743 125.281,93.652C123.708,102.56 123.801,107.781 125.571,110.187C125.855,110.588 126.22,110.927 126.644,111.181C127.068,111.436 127.541,111.6 128.033,111.663C128.615,111.72 129.203,111.655 129.758,111.472C130.312,111.289 130.821,110.992 131.251,110.6C133.791,108.557 135.83,103.801 136.093,99.317C136.28,96.175 136.093,92.109 133.357,83.67C132.427,80.868 132.427,77.845 133.357,75.043C134.341,72.464 136.237,70.325 138.696,69.02C137.2,70.966 135.886,73.505 135.592,75.487C135.297,77.469 135.623,79.691 136.481,82.429C136.771,83.338 137.154,84.38 137.563,85.494C138.985,89.35 140.755,94.178 140.91,99.633C141.168,108.557 137.216,118.222 129.389,118.533C126.114,118.671 123.388,117.711 121.282,115.683C119.972,114.367 118.944,112.803 118.261,111.086C117.162,108.319 116.393,105.436 115.969,102.494Z" style="fill:rgb(10,44,55);fill-rule:nonzero;"/>
                <path d="M126.636,81.236C132.508,64.823 129.021,47.568 129.021,47.568C132.399,45.637 135.87,40.033 135.87,40.033C133.625,29.776 126.098,21.572 126.098,21.572C126.098,21.572 114.489,28.949 109.253,37.975C109.253,37.975 110.805,42.889 112.28,44.917C112.28,44.917 102.135,61.641 100.795,76.705C100.795,76.689 114.359,80.091 126.636,81.236Z" style="fill:white;fill-rule:nonzero;"/>
                <path d="M126.325,81.254L121.529,80.569C126.951,68.596 125.911,52.725 125.477,48.235C125.436,47.864 125.478,47.489 125.599,47.136C125.721,46.783 125.919,46.461 126.18,46.192C128.374,43.637 130.95,40.445 131.322,38.585C131.695,36.726 126.046,21.928 126.046,21.928C126.046,21.928 134.178,31.143 136.242,39.965C136.242,39.965 131.881,45.865 129.232,47.806C129.232,47.801 132.093,68.192 126.325,81.254Z" style="fill:rgb(10,44,55);fill-rule:nonzero;"/>
                <path d="M126.6,81.748C113.056,81.125 100.821,77.227 100.687,77.191C100.568,77.161 100.464,77.091 100.393,76.993C100.322,76.895 100.289,76.775 100.299,76.655C101.463,60.135 110.35,47.206 111.68,44.928C110.462,43.001 109.468,40.945 108.716,38.798C108.594,38.48 108.555,38.136 108.602,37.799C108.649,37.462 108.78,37.142 108.985,36.867C109.553,35.955 110.173,35.075 110.842,34.231C112.314,32.365 113.926,30.609 115.663,28.98C118.768,26.078 122.131,23.458 125.71,21.15C125.763,21.096 125.828,21.055 125.899,21.03C125.97,21.004 126.046,20.994 126.122,21C126.197,21.006 126.27,21.029 126.336,21.066C126.402,21.104 126.458,21.155 126.502,21.216C128.949,24.002 131.078,27.046 132.849,30.293C133.754,31.93 134.548,33.625 135.224,35.366C135.771,36.756 136.222,38.181 136.574,39.631C136.637,39.828 136.652,40.037 136.619,40.241C136.585,40.444 136.505,40.638 136.383,40.806C135.591,42.047 132.648,46.067 129.761,47.891C130.211,50.445 133.051,66.05 127.133,81.405C127.095,81.513 127.022,81.605 126.926,81.667C126.829,81.729 126.715,81.757 126.6,81.748ZM128.535,47.467C131.877,44.994 135.26,40.264 135.317,39.943C135.374,39.621 133.284,33.608 131.882,30.967C129.518,26.523 126.295,22.314 125.974,22.284C125.653,22.253 120.609,25.956 116.553,29.859C114.055,32.26 109.931,37.383 109.828,38.032C109.724,38.681 111.297,42.323 112.896,44.923C112.797,45.086 102.828,61.657 101.364,76.318C103.734,76.89 115.513,79.658 126.29,80.706C131.856,64.707 128.571,47.625 128.535,47.467Z" style="fill:rgb(10,44,55);fill-rule:nonzero;"/>
                <path d="M112.513,39.033C112.916,37.754 113.503,36.538 114.256,35.422C114.992,34.302 115.81,33.237 116.703,32.234C117.586,31.238 118.52,30.286 119.502,29.384C120.483,28.471 121.519,27.618 122.606,26.83C121.809,27.913 120.95,28.924 120.081,29.921L117.464,32.894C116.589,33.869 115.731,34.865 114.877,35.872C114.023,36.878 113.294,37.92 112.513,39.033Z" style="fill:rgb(117,204,199);fill-opacity:0.5;fill-rule:nonzero;"/>
                <path d="M94.557,95.791C95.474,94.616 96.281,93.361 96.967,92.042C97.602,90.716 98.148,89.351 98.602,87.955C99.052,86.54 99.502,85.131 100.077,83.731C100.637,82.307 101.387,80.964 102.306,79.736C102.121,81.235 101.825,82.719 101.422,84.175C101.037,85.635 100.532,87.062 99.911,88.441C99.616,89.14 99.301,89.835 98.944,90.52C98.599,91.211 98.205,91.876 97.764,92.512C96.879,93.767 95.796,94.874 94.557,95.791Z" style="fill:rgb(117,204,199);fill-opacity:0.5;fill-rule:nonzero;"/>
                <path d="M114.462,47.008C113.655,49.174 112.823,51.304 111.984,53.429C111.146,55.554 110.308,57.674 109.512,59.809C108.715,61.944 107.872,64.059 107.08,66.199C106.289,68.34 105.528,70.485 104.628,72.63C104.882,70.336 105.315,68.065 105.921,65.837C106.511,63.608 107.225,61.414 108.058,59.262C108.482,58.19 108.925,57.124 109.387,56.065C109.874,55.043 110.344,53.965 110.883,52.944C111.916,50.875 113.113,48.89 114.462,47.008Z" style="fill:rgb(117,204,199);fill-opacity:0.5;fill-rule:nonzero;"/>
            </g>
        </g>
    </g>
</svg>
