<svg width="1440" height="576" viewBox="0 0 1440 576" fill="none" xmlns="http://www.w3.org/2000/svg"><path d="M218.599 517.233C62.5022 548.956-61.5248 631.556-119.554 773.74l-.34-.647c-58.678 37.528-108.575 87.276-146.295 145.859-37.72 58.582-62.379 124.628-72.297 193.628-16.915-52.22-25.231-106.85-24.622-161.726-.147-47.714 3.903-95.343 12.101-142.337 15.749-121.763 73.202-234.244 162.569-318.28C-83.5997 387.516 54.9348 333.165 188.133 313.254c305.291-45.65 597.161 125.147 789.288 227.554 134.519 71.1 269.319 117.625 361.629 60.092 76.19-47.4 39.77-131.401 25.54-151.294-15.44-23.096-38.92-39.611-65.86-46.322-61.8-11.277-110.71 37.35-85.44 103.965 8.7 23.041-11.5 27.884-29.75 18.722-20.2-10.151-46.45-48.627-40.33-99.057 7.77-66.999 74.59-146.768 188.67-124.163 92.47 18.275 146.21 91.745 165.36 164.883 20.58 78.994-.83 191.763-123.57 258.222-156.03 84.319-343.73 5.094-480.4-52.593l-1.635-.69c-136.807-57.742-457.496-198.859-673.036-155.34z" fill="url(#paint0_linear_1208_9902)"/><path opacity=".75" d="M397.768 474.278c-230.722-10.645-282.296 62.618-346.3159 102.396L75.6044 987.41l226.7336-13.333c304.01-217.285 618.417-74.156 862.272 19.99l222.01-13.054C1173.85 721.42 748.176 490.446 397.768 474.278z" fill="url(#paint1_linear_1208_9902)"/><defs><linearGradient id="paint0_linear_1208_9902" x1="1401.7" y1="437.769" x2="148.623" y2="471.999" gradientUnits="userSpaceOnUse"><stop stop-color="#FFBDF2" stop-opacity=".75"/><stop offset="1" stop-color="#5690C5" stop-opacity=".5"/></linearGradient><linearGradient id="paint1_linear_1208_9902" x1="1149.4" y1="641.494" x2="131.811" y2="864.866" gradientUnits="userSpaceOnUse"><stop stop-color="#5690C5" stop-opacity="0"/><stop offset="1" stop-color="#12FF1B"/></linearGradient></defs></svg>