<svg width="67" height="67" viewBox="0 0 67 67" fill="none" xmlns="http://www.w3.org/2000/svg">
<g clip-path="url(#clip0)">
<path d="M17.5156 61.6334C18.0034 62.5729 18.5988 63.4524 19.29 64.2542C19.6644 64.181 20.1853 64.0426 20.8608 63.8473C21.3736 63.6926 22.0329 63.4485 22.6189 63.2368L23.0666 63.0659C23.0014 62.7241 22.9608 62.4636 22.9363 62.252C21.1472 61.9122 19.3353 61.7054 17.5156 61.6334Z" fill="white"/>
<path d="M51.0977 19.7654C51.0977 19.7654 43.3654 32.6904 42.1934 44.476C48.8551 46.0568 55.603 47.2499 62.403 48.0491C66.79 35.2299 64.1367 21.8653 64.1367 21.8653C66.7738 20.3433 69.476 15.9237 69.476 15.9237C67.726 7.8333 61.8577 1.35449 61.8577 1.35449C61.8577 1.35449 52.8232 7.17402 48.7454 14.2877C48.7454 14.2877 49.95 18.1375 51.0977 19.7654Z" fill="white"/>
<path d="M-4.61509 57.5395C-10.9555 52.6559 -9.84046 43.8249 -9.06724 40.1053C-8.59516 37.8426 -7.96844 33.3416 -9.2463 30.3382C-10.0261 28.5539 -11.41 27.1016 -13.1547 26.2366C-14.8994 25.3717 -16.8932 25.1496 -18.7854 25.6094C-24.1248 27.0744 -25.6631 32.78 -22.9202 36.1903C-22.5319 36.74 -21.9976 37.1701 -21.3777 37.4319C-20.7577 37.6936 -20.0769 37.7767 -19.4122 37.6717C-18.4273 37.5089 -18.6471 36.8577 -19.1192 36.4752C-19.7399 35.9586 -20.1791 35.257 -20.3726 34.473C-20.7796 32.7963 -20.1203 30.558 -18.0122 30.0697C-15.9042 29.5813 -13.2752 31.608 -13.674 35.1078C-14.0728 38.6077 -17.9227 45.8678 -14.9356 55.2686C-13.145 60.901 -7.47195 65.4263 0.252151 67.6565C0.830034 67.8274 1.41606 67.9739 2.01836 68.1123C-3.34538 63.7171 -4.44417 58.6383 -4.61509 57.5395Z" fill="white"/>
<path d="M19.9165 64.9379C21.2689 66.306 22.9255 67.3351 24.7512 67.9413C24.0981 66.6447 23.5904 65.2799 23.2373 63.8717L22.9036 63.9938C22.3013 64.2217 21.6257 64.4659 21.0885 64.6287C20.5514 64.7914 20.2502 64.8565 19.9165 64.9379Z" fill="white"/>
<path d="M7.00768 59.9812C3.22295 55.4395 2.62879 49.7013 4.3543 43.8086C6.74723 35.6694 17.32 27.2371 21.7478 23.5989C26.1755 19.9607 32.3287 14.9551 32.2229 8.07746C32.1578 2.67303 28.6905 -0.0698819 25.622 -0.786132C24.0825 -1.20651 22.4547 -1.17694 20.9315 -0.700925C19.4082 -0.224908 18.0533 0.677621 17.027 1.89981C14.2109 5.39152 15.7248 9.11114 17.841 10.5843C18.4146 11.0242 19.1002 11.294 19.8198 11.3631C20.5393 11.4321 21.2637 11.2977 21.9106 10.975C22.5536 10.5192 22.7245 9.73786 21.8048 9.62391C19.1432 9.2902 18.3619 6.74263 19.8758 4.82992C20.5901 4.03033 21.5767 3.52544 22.6431 3.4137C23.571 3.28347 27.0952 3.55206 27.3475 7.01122C27.6487 11.1948 23.6524 14.9714 18.7688 18.2759C11.8342 23.021 0.764912 29.9231 -3.15818 41.1877C-5.06389 46.3209 -5.31717 51.9215 -3.88257 57.2057C-2.62584 61.7857 0.181959 65.7874 4.06129 68.5273C5.51977 69.6528 7.075 70.6469 8.70877 71.4981C10.5792 72.5101 12.6028 73.2084 14.6992 73.5655C12.5152 71.988 10.6973 69.9577 9.36991 67.6133C8.04247 65.2689 7.23672 62.6656 7.00768 59.9812Z" fill="white"/>
<path d="M27.0136 71.4981C26.3726 70.6936 25.7931 69.842 25.28 68.9505C22.92 68.316 20.7765 67.053 19.0779 65.296C17.6416 63.9347 16.6105 62.2021 16.099 60.2904C15.4202 56.6136 15.8245 52.8188 17.2629 49.3676C19.0454 44.8096 23.408 38.9657 27.9822 34.6682C32.296 30.5986 34.7459 27.6766 36.2598 23.7047C37.4155 20.6687 37.733 17.3561 39.5968 13.6202C42.1037 8.58203 46.9221 7.61347 49.4941 7.33673C50.5848 7.21465 50.2592 6.62048 49.6732 6.35189C45.8559 4.5694 40.134 5.76587 36.6505 10.4785C33.3948 14.8085 33.3948 16.9084 31.2379 21.4338C29.8135 24.3802 27.502 26.7243 23.4812 30.387C18.264 35.0996 14.2188 38.8924 11.2154 44.2236C8.31349 49.354 7.21047 55.3074 8.08185 61.1369C8.43232 63.7928 9.38905 66.3326 10.878 68.5597C12.367 70.7868 14.3483 72.6416 16.6687 73.9805C21.0582 76.9238 26.3387 78.2396 31.596 77.7001C32.5381 77.6146 33.4753 77.4815 34.404 77.3013C31.5204 75.9718 28.9891 73.9841 27.0136 71.4981Z" fill="white"/>
<path d="M73.8064 62.9031C73.6518 57.2057 71.324 52.3222 70.3473 49.2293C69.0532 45.0946 69.3624 42.6121 71.6414 39.6087C72.3902 38.6239 72.2356 37.9809 71.0228 38.689C66.4079 41.4726 65.9114 46.6247 67.1323 50.4501C69.0531 56.5139 69.4031 59.8265 69.2404 62.659C68.9718 67.2413 66.2533 72.426 63.4208 72.019C60.9791 71.6772 59.8721 68.2669 61.6139 58.2882C62.5906 52.7047 62.4278 49.8641 62.3464 48.863C55.5006 48.0576 48.7067 46.8592 41.9984 45.2736C41.7624 45.5178 40.3706 47.1782 37.88 54.6581C36.9579 57.6516 35.1257 60.2832 32.6384 62.1869C33.2654 64.1267 34.3195 65.9012 35.7231 67.3797C38.2463 65.9146 41.7705 60.7462 41.7868 60.7137C41.9089 61.6171 39.6543 65.6705 36.3173 67.9576C36.7988 68.3911 37.3161 68.7832 37.8637 69.1296C38.5143 69.5466 39.2565 69.7993 40.0263 69.866C40.7962 69.9326 41.5708 69.8112 42.2833 69.5122C44.7251 68.5762 46.8331 65.8495 47.9807 63.0008C47.7815 64.5798 47.1819 66.0817 46.2389 67.3638C45.2958 68.6459 44.0407 69.6656 42.5926 70.3261C41.7839 70.6482 40.9139 70.7872 40.045 70.733C39.1295 70.6401 38.2513 70.3212 37.4893 69.8052C34.5354 67.8562 32.4545 64.8356 31.6861 61.3811C29.8792 55.179 31.0431 47.048 37.2044 39.4053C40.6311 35.1403 41.738 32.7311 42.7961 29.4103C43.96 25.7232 43.7728 21.8734 42.267 19.6433C41.7624 18.9107 40.9485 18.5933 41.1031 20.3351C41.3033 22.7455 40.8536 25.1654 39.8008 27.343C37.8474 31.2498 36.4394 32.2672 32.7442 36.0275C27.2746 41.5866 20.9667 50.2874 23.8561 62.5124C24.5364 65.5811 25.8262 68.4818 27.649 71.0423C29.8393 73.7113 32.6863 75.7645 35.9103 77.0002C39.0522 78.2514 42.5277 78.3893 45.7587 77.3909C46.8919 76.992 47.9488 76.4029 48.8842 75.6491C50.6631 74.1616 51.9932 72.2087 52.7259 70.0087C53.1736 68.8041 53.6131 66.0693 54.0119 64.3845C54.1435 66.301 54.4155 68.2052 54.8258 70.0819C55.3934 72.8263 56.9707 75.2576 59.2454 76.8944C60.8137 77.896 62.6636 78.3642 64.5196 78.2292C70.9007 77.9607 74.0099 70.0168 73.8064 62.9031ZM59.1559 56.8476C58.8697 58.5984 57.9374 60.1783 56.5432 61.2753C55.343 62.1695 53.8602 62.6001 52.3678 62.488C52.1602 62.4729 51.9536 62.4457 51.7492 62.4066C50.9094 62.2529 50.11 61.9288 49.4003 61.4542C48.6906 60.9797 48.0856 60.3648 47.6226 59.6474C46.6963 58.1424 46.3627 56.3466 46.6866 54.6093C46.9542 52.8911 47.885 51.3465 49.279 50.3071C50.673 49.2677 52.4191 48.8164 54.1421 49.0502C57.5118 49.6118 59.8314 53.1361 59.1722 56.8557L59.1559 56.8476Z" fill="white"/>
<path d="M54.0115 49.7421C53.8324 49.7421 53.6534 49.6932 53.4824 49.677C52.0417 49.6466 50.6405 50.1489 49.5471 51.0875C48.4538 52.0262 47.7452 53.3353 47.5571 54.764C47.2581 56.3133 47.5484 57.9184 48.371 59.2649C48.7453 59.8946 49.2505 60.4364 49.8524 60.8537C50.4544 61.2711 51.139 61.5542 51.8599 61.6838C52.5808 61.8135 53.3212 61.7867 54.0308 61.6053C54.7404 61.4239 55.4028 61.0921 55.973 60.6323C57.2189 59.658 58.0551 58.2527 58.3171 56.693C58.9276 53.3803 57.023 50.2793 54.0115 49.7421ZM55.3951 56.1395C55.0045 58.3289 53.5801 59.9079 52.2127 59.6556C50.8453 59.4033 50.0802 57.4418 50.5116 55.2523C50.943 53.0629 52.3267 51.492 53.6941 51.7362C55.0614 51.9804 55.8102 53.95 55.3951 56.1395Z" fill="white"/>
<path d="M54.5519 54.7976C54.6762 54.1029 54.3572 53.4647 53.8395 53.3721C53.3218 53.2795 52.8014 53.7676 52.6771 54.4623C52.5529 55.157 52.8718 55.7953 53.3896 55.8879C53.9073 55.9805 54.4277 55.4923 54.5519 54.7976Z" fill="white"/>
</g>
<defs>
<clipPath id="clip0">
<rect width="65.9276" height="65.9276" fill="white" transform="translate(0.162598 0.581177)"/>
</clipPath>
</defs>
</svg>
