<?xml version="1.0" encoding="utf-8"?>
<!-- Generator: Adobe Illustrator 26.1.0, SVG Export Plug-In . SVG Version: 6.00 Build 0)  -->
<svg version="1.1" id="Layer_1" xmlns="http://www.w3.org/2000/svg" xmlns:xlink="http://www.w3.org/1999/xlink" x="0px" y="0px"
	 viewBox="0 0 608 267" style="enable-background:new 0 0 608 267;" xml:space="preserve">
<style type="text/css">
	.st0{fill:#BCC3D8;}
	.st1{fill:#343393;}
	.st2{fill:#010101;}
</style>
<g id="_x23_ffffffff">
</g>
<path class="st0" d="M8,8c9.1,0,18.3,0,27.4,0c0,9.1,0,18.3,0,27.4c-9.1,0.1-18.2,0-27.4,0C8,26.3,8,17.1,8,8z"/>
<path class="st0" d="M60,8C69.2,8,78.4,8,87.7,8c0,9.1,0,18.3,0,27.4c-9.2,0-18.4,0-27.6,0C60,26.3,60.1,17.2,60,8z"/>
<path class="st0" d="M113.8,8c9.2,0,18.4,0,27.6,0c0,9.1,0,18.3,0,27.4c-9.2,0.1-18.4,0.1-27.6,0C113.7,26.3,113.8,17.1,113.8,8z"/>
<path class="st0" d="M168.8,8c9.1,0,18.3,0,27.4,0c0,9.1,0,18.3,0,27.4c-9.1,0-18.3-0.1-27.4,0C168.8,26.3,168.7,17.2,168.8,8z"/>
<path class="st0" d="M223.5,8c9.2,0,18.5,0,27.7,0c0,9.1,0,18.3,0,27.4c-9.2,0-18.4,0-27.6,0C223.4,26.3,223.5,17.2,223.5,8z"/>
<path class="st0" d="M278.3,8c9.2-0.1,18.5,0,27.7,0c0,9.2,0.1,18.3-0.1,27.5c-9.2-0.1-18.5,0-27.7,0C278.4,26.3,278.3,17.2,278.3,8
	z"/>
<path class="st0" d="M333.3,8.1c9.1-0.1,18.2-0.1,27.4,0c0,9.2,0,18.3,0,27.5c-9.1-0.1-18.2,0-27.4-0.1
	C333.3,26.3,333.3,17.2,333.3,8.1z"/>
<path class="st0" d="M388,8c9.2-0.1,18.5,0,27.7,0c0,9.1,0,18.3,0.1,27.4c-9.3,0.1-18.6,0.1-27.9,0C388.2,26.3,388,17.2,388,8z"/>
<path class="st0" d="M8,62.8c9.1-0.1,18.2,0.1,27.3-0.1c0.3,9.2,0,18.4,0.2,27.6c-9.2-0.1-18.3,0-27.5-0.1C8,81.1,8,71.9,8,62.8z"/>
<path class="st0" d="M60,62.8c9.2,0.1,18.5-0.1,27.8,0.1c0,9.1-0.1,18.2,0,27.3c-9.2,0-18.4,0.1-27.7,0.1C59.8,81.1,60,71.9,60,62.8
	z"/>
<path class="st0" d="M113.7,62.8c9.2,0,18.5,0,27.7,0c0,9.1,0,18.3,0,27.4c-9.2,0-18.5,0-27.7,0.1C113.8,81.1,113.9,71.9,113.7,62.8
	z"/>
<path class="st0" d="M168.7,62.7c9.2,0.2,18.3,0.1,27.5,0c0,9.2,0.1,18.4-0.1,27.5c-9.1-0.1-18.2-0.1-27.4,0
	C168.8,81,168.8,71.9,168.7,62.7z"/>
<path class="st0" d="M223.6,62.8c9.2,0,18.4,0,27.6,0c-0.1,9.2,0,18.4-0.1,27.5c-9.2-0.2-18.4,0-27.6-0.1
	C223.4,81.1,223.4,71.9,223.6,62.8z"/>
<path class="st0" d="M278.4,62.8c9.2-0.1,18.5,0.1,27.7-0.1c0,9.2,0,18.4,0,27.6c-9.2-0.1-18.5,0-27.8-0.1
	C278.4,81.1,278.2,71.9,278.4,62.8z"/>
<path class="st0" d="M333.4,90.2c-0.1-9.2-0.3-18.3,0.1-27.5c9.1,0.1,18.1,0.1,27.2,0c-0.1,9.2,0,18.4,0,27.6
	C351.6,90.1,342.5,90.3,333.4,90.2z"/>
<path class="st0" d="M388,62.8c9.2,0.1,18.5-0.1,27.8,0.1c0,9.1-0.1,18.2,0,27.3c-9.2,0-18.5,0.1-27.7,0.1
	C388,81.1,388,71.9,388,62.8z"/>
<path class="st0" d="M333.4,117.5c9.1,0.1,18.2,0,27.3,0c0,9.2,0,18.3,0,27.4c-9.1,0.1-18.2,0.2-27.3-0.1
	C333.3,135.8,333.2,126.7,333.4,117.5z"/>
<path class="st0" d="M8,117.6c9.1,0,18.3,0,27.4,0c0.1,9.2,0.1,18.4,0,27.6c-9.1-0.1-18.3,0-27.4,0C8,135.9,8,126.7,8,117.6z"/>
<path class="st0" d="M60,117.6c9.3,0,18.5-0.1,27.8,0.1c-0.1,9.1-0.1,18.2,0,27.3c-9.2,0.2-18.5,0.2-27.7,0.1
	C59.9,135.8,60,126.7,60,117.6z"/>
<path class="st0" d="M113.8,117.5c9.2,0,18.5,0,27.7,0c-0.1,9.2,0,18.3-0.1,27.5c-9.2-0.1-18.5,0.2-27.7-0.2
	C113.9,135.8,113.8,126.7,113.8,117.5z"/>
<path class="st0" d="M168.7,117.6c9.1,0,18.3,0,27.4-0.1c0.2,9.2,0.1,18.3,0,27.5c-9.1,0.1-18.3,0.2-27.4-0.1
	C168.8,135.8,168.8,126.7,168.7,117.6z"/>
<path class="st0" d="M223.6,117.6c9.2,0,18.4,0,27.7,0c0,9.1-0.1,18.3,0.1,27.4c-9.2,0.2-18.5,0.1-27.7,0.1
	C223.4,135.9,223.4,126.7,223.6,117.6z"/>
<path class="st0" d="M278.4,145c-0.1-9.2-0.1-18.3,0-27.5c9.2,0.1,18.4,0,27.7,0c-0.1,9.1,0.1,18.3-0.1,27.4
	C296.8,145.2,287.5,145.1,278.4,145z"/>
<path class="st0" d="M388,117.6c9.3,0,18.5,0,27.8,0.1c-0.1,9.1-0.1,18.2,0,27.3c-9.2,0.2-18.5,0.2-27.7,0
	C388,135.8,388,126.7,388,117.6z"/>
<path class="st1" d="M442.2,8c9.3,0,18.5,0,27.8,0c0,9.2-0.1,18.3,0.1,27.5c-9.3,0.1-18.6,0.1-27.9,0C442.2,26.3,442.2,17.2,442.2,8
	z"/>
<path class="st1" d="M497.2,8c9.3,0,18.5,0,27.8,0c0,9.1-0.1,18.3,0.1,27.5c-9.3,0.2-18.6,0-27.9,0C497.2,26.3,497.2,17.2,497.2,8z"
	/>
<path class="st1" d="M552,8c9.3,0,18.5,0,27.8,0c0,9.2,0,18.3,0,27.5c-9.3,0.1-18.5,0-27.8,0.1C552,26.4,552,17.2,552,8z"/>
<path class="st1" d="M442.2,62.8c9.3,0,18.6,0,27.8,0c-0.1,9.2,0.1,18.4-0.1,27.5c-9.2,0-18.5-0.1-27.7,0
	C442.2,81.1,442.2,71.9,442.2,62.8z"/>
<path class="st1" d="M497.2,62.7c9.3,0.1,18.5,0,27.8,0c0,9.2,0,18.4,0,27.5c-9.3,0-18.5,0-27.8,0C497.2,81.1,497.2,71.9,497.2,62.7
	z"/>
<path class="st1" d="M552,62.8c9.3,0,18.5,0,27.8,0c0,9.2,0.1,18.3,0,27.5c-9.2,0-18.5,0-27.8,0C552,81.1,552,71.9,552,62.8z"/>
<path class="st1" d="M442.2,117.5c9.3,0,18.5,0,27.8,0c-0.1,9.2,0,18.4,0,27.6c-9.3,0-18.5,0-27.8,0
	C442.2,135.9,442.2,126.7,442.2,117.5z"/>
<path class="st1" d="M552,117.4c9.2,0,18.5,0,27.7,0c0.1,9.2,0,18.4,0,27.5c-9.3,0-18.5,0-27.8,0C552,135.8,552,126.6,552,117.4z"/>
<path class="st1" d="M497.2,117.5c9.3,0,18.5,0,27.8,0c-0.1,9.2-0.1,18.4,0,27.6c-9.3-0.1-18.6-0.1-27.8,0
	C497.2,135.9,497.2,126.7,497.2,117.5z"/>
<path class="st2" d="M325.2,249.8c0.1-19.1,0-38.2,0-57.4c3.4,0,6.9,0,10.3,0c-0.3,8.2,0.6,16.5-0.6,24.7c4.4-8.5,18.1-9.4,23.4-1.5
	c3.7,5.4,4,12.5,3,18.8c-1.1,6.7-5.5,13.1-12,15.6C341.6,253,333,251.6,325.2,249.8 M337.4,223.4c-3.1,6-1.5,13.1-1.8,19.6
	c3.7,0.4,7.9,1.2,11.1-1.2c3.9-3,4.4-8.4,4.4-12.9c-0.1-3.5-0.7-8-4.3-9.7C343.1,217.6,338.9,220,337.4,223.4z"/>
<path class="st2" d="M235.4,202.3c8.1-6.9,19.8-6.9,29.7-4.6c-0.3,3.1-0.7,6.3-1.1,9.4c-6-1.4-12.9-2.8-18.6,0.4
	c-5.7,3.4-7.6,10.4-7.5,16.6c-0.1,5.9,1.5,12.8,6.9,16.1c6,3.5,13.3,2.2,19.5,0c0.4,3.1,0.8,6.2,1.1,9.4c-8.6,2.6-18.4,3.6-26.8-0.3
	c-6.9-3.3-11.1-10.7-11.9-18.2C225.6,220.9,227.4,209.3,235.4,202.3z"/>
<path class="st2" d="M434.9,196.9c5.8-1.5,11.8-0.9,17.6,0c-0.2,3-0.5,6-0.6,9c-5.2-1.2-11-2.5-16-0.1c-3.6,1.9-4.1,7.5-0.6,9.8
	c5.4,3.5,12.2,4.5,16.9,9.1c4.6,4.7,4.6,12.5,1.4,17.9c-2.3,4.1-6.6,6.7-11.1,8c-6.3,1.8-12.9,1.2-19.2-0.1c0.1-3.2,0.3-6.4,0.6-9.7
	c5.6,1.4,11.9,3.2,17.4,0.5c3.7-1.8,4.6-7.4,1.4-10.1c-4.7-3.8-11.2-4.3-15.9-8.2c-5-3.6-6-10.8-4.1-16.3
	C424.6,201.5,429.7,198.1,434.9,196.9z"/>
<path class="st2" d="M374.7,218.6c5.2-9.5,19.9-11.2,27.6-3.9c4.6,4.7,5.1,11.8,4.4,18c-8.4,0-16.8,0-25.2,0
	c0.2,3.7,1.2,7.9,4.9,9.7c5.8,2.6,12.5,0.9,18.2-1.2c0.3,2.6,0.6,5.3,0.9,7.9c-7.3,2.5-15.5,3.6-23,1.2c-4.7-1.5-8.4-5.4-9.8-10.1
	C370.7,233.2,371,225.2,374.7,218.6 M384.7,219.7c-1.8,1.5-2.3,3.9-2.9,6c5.1,0.1,10.2,0.1,15.3-0.1c-0.5-1.9-0.7-4-1.9-5.6
	C392.6,217,387.5,217,384.7,219.7z"/>
<path class="st2" d="M468.4,217.4c5.4-7.9,17.4-9.4,25.1-4.2c6.1,4.4,7,12.6,6.2,19.5c-8.4,0-16.8,0-25.1,0c0.1,3.7,1.2,8.1,4.9,9.8
	c5.8,2.5,12.4,0.9,18.1-1.2c0.3,2.6,0.6,5.3,0.9,7.9c-7.4,2.5-15.6,3.6-23.1,1.2c-4.8-1.5-8.5-5.7-9.8-10.6
	C463.6,232.4,464.1,223.9,468.4,217.4 M477.7,219.7c-1.8,1.5-2.3,3.9-2.9,6c5.1,0,10.2,0.1,15.3-0.1c-0.4-2-0.7-4.2-2-5.8
	C485.3,217.1,480.5,217.1,477.7,219.7z"/>
<path class="st2" d="M521.6,219.4c1.5-5.6,6.8-9.7,12.6-9.4c0,3.3-0.3,6.5-0.2,9.8c-2.5,0.2-5.3-0.1-7.4,1.7
	c-3,2.9-3.7,7.4-3.8,11.4c-0.1,6,0,12,0,18.1c-3.4,0-6.9,0-10.3-0.1c0.1-13.2,0-26.5,0-39.7c3.3,0,6.5,0,9.8,0
	C522,214,521.8,216.7,521.6,219.4z"/>
<path class="st2" d="M275.2,211c3.4-0.1,6.8-0.1,10.2-0.1c0.1,8.6,0,17.3,0,25.9c0,2.2,0.5,5,2.8,6c2.6,1.1,5.7,0,7.5-2
	c2.8-2.8,4-6.9,4-10.9c0-6.3,0-12.6,0-19c3.4,0,6.8-0.1,10.2-0.1c0,13.3,0,26.5,0,39.8c-3.2,0-6.4,0-9.6,0c0.1-2.3,0.2-4.6,0.5-6.9
	c-3.7,7.4-13.7,10.1-20.8,6.2c-3.6-2.3-4.9-6.8-4.8-10.8C275.2,229.8,275.2,220.4,275.2,211z"/>
<path class="st2" d="M539.3,211c3.8,0,7.5,0,11.3,0c3.1,9,6.6,17.9,9.1,27.1c2-9.3,6-18.1,8.9-27.1c3.7,0,7.4,0,11-0.1
	c-5.2,13.3-10,26.7-15,40c-3.5,0-7,0-10.4,0C549.1,237.7,544.2,224.3,539.3,211z"/>
<path d="M590.7,247.8c-0.1,0-0.2,0-0.3,0c-0.1,0-0.2,0-0.2-0.1c-0.1,0-0.1-0.1-0.2-0.2c0-0.1-0.1-0.1-0.1-0.2l-0.7-1.8
	c-0.1-0.2-0.2-0.4-0.2-0.5c-0.1-0.1-0.2-0.3-0.3-0.4c-0.1-0.1-0.2-0.2-0.3-0.2c-0.1-0.1-0.3-0.1-0.5-0.1h-0.4v3.1l-0.1,0.1
	c0,0.1-0.1,0.1-0.2,0.1c-0.1,0-0.1,0-0.2,0c-0.1,0-0.2,0-0.3,0s-0.2,0-0.3,0c-0.1,0-0.2,0-0.2,0l-0.1,0l-0.1-0.1
	c0-0.1-0.1-0.1-0.1-0.2v-7c0-0.2,0.1-0.4,0.2-0.5c0.1-0.1,0.3-0.1,0.4-0.1h1.6c0.2,0,0.4,0,0.5,0c0.1,0,0.2,0,0.4,0
	c0.3,0.1,0.6,0.1,0.9,0.3c0.3,0.1,0.5,0.3,0.6,0.5c0.2,0.2,0.3,0.4,0.4,0.7c0.1,0.2,0.1,0.5,0.1,0.8c0,0.3,0,0.5-0.1,0.8
	c-0.1,0.2-0.2,0.4-0.3,0.6c-0.1,0.2-0.3,0.3-0.5,0.5c-0.1,0-0.1,0.1-0.2,0.1c0.1,0.1,0.2,0.2,0.3,0.3c0.1,0.1,0.2,0.3,0.3,0.4
	c0.1,0.2,0.2,0.3,0.2,0.5l0.7,1.7c0.1,0.2,0.1,0.3,0.1,0.3c0,0.1,0,0.1,0,0.2v0.1l0,0.1c0,0.1-0.1,0.1-0.2,0.2c-0.1,0-0.1,0-0.2,0.1
	C591,247.8,590.9,247.8,590.7,247.8z M588.2,243.1c0.2,0,0.4,0,0.6-0.1c0.2-0.1,0.3-0.1,0.4-0.2c0.1-0.1,0.2-0.2,0.2-0.3
	c0-0.1,0.1-0.3,0.1-0.4c0-0.2-0.1-0.5-0.2-0.6c-0.1-0.2-0.3-0.3-0.5-0.3c-0.1,0-0.2,0-0.3,0c-0.1,0-0.3,0-0.5,0h-0.6v2.1H588.2z"/>
<path d="M588.5,251.8c-4.4,0-8-3.6-8-8s3.6-8,8-8c4.4,0,8,3.6,8,8S593,251.8,588.5,251.8z M588.5,237.3c-3.6,0-6.5,2.9-6.5,6.5
	s2.9,6.5,6.5,6.5c3.6,0,6.5-2.9,6.5-6.5S592.1,237.3,588.5,237.3z"/>
</svg>
