<svg id="Layer_1" data-name="Layer 1" xmlns="http://www.w3.org/2000/svg" viewBox="0 0 610.04 139.08" xmlns:xlink="http://www.w3.org/1999/xlink">
 <defs>
  <style>
   .cls-1{fill:#29b5e8;fill-rule:evenodd;}
  </style>
 </defs>
 <path class="cls-1" d="M601.81,41.07H600.2v2h1.61c.74,0,1.23-.33,1.23-1S602.59,41.07,601.81,41.07Zm-3.59-1.83h3.62c2,0,3.3,1.08,3.3,2.76a2.64,2.64,0,0,1-1.31,2.32l1.42,2.06v.41h-2.06l-1.38-2H600.2v2h-2Zm10.13,3.92c0-4-2.69-7.1-6.81-7.1s-6.73,2.91-6.73,7.1c0,4,2.69,7.11,6.73,7.11S608.35,47.2,608.35,43.16Zm1.69,0c0,4.76-3.18,8.72-8.5,8.72s-8.41-4-8.41-8.72,3.14-8.71,8.41-8.71S610,38.41,610,43.16ZM134.11,60.07l-16.39,9.48L134.11,79a8.64,8.64,0,1,1-8.64,15L96.12,77a8.58,8.58,0,0,1-3.92-4.93,8.44,8.44,0,0,1-.38-2.81,8,8,0,0,1,.3-2,8.67,8.67,0,0,1,4-5.18l29.35-16.94a8.64,8.64,0,0,1,8.64,15ZM118.59,106,89.25,89.08a8.49,8.49,0,0,0-5-1.13,8.63,8.63,0,0,0-8,8.61v33.88a8.64,8.64,0,0,0,17.28,0v-19L110,121a8.64,8.64,0,1,0,8.63-15ZM84.73,72.86,72.53,85a2.39,2.39,0,0,1-1.53.65H67.42A2.48,2.48,0,0,1,65.88,85L53.69,72.86a2.49,2.49,0,0,1-.63-1.52V67.75a2.5,2.5,0,0,1,.63-1.54L65.88,54a2.47,2.47,0,0,1,1.54-.64H71a2.4,2.4,0,0,1,1.53.64l12.2,12.18a2.5,2.5,0,0,1,.63,1.54v3.59A2.49,2.49,0,0,1,84.73,72.86ZM75,69.48a2.64,2.64,0,0,0-.64-1.55L70.8,64.42a2.45,2.45,0,0,0-1.52-.64h-.14a2.45,2.45,0,0,0-1.52.64l-3.53,3.51a2.51,2.51,0,0,0-.63,1.55v.13a2.41,2.41,0,0,0,.63,1.52l3.53,3.53a2.48,2.48,0,0,0,1.52.64h.14a2.45,2.45,0,0,0,1.52-.64l3.54-3.53A2.53,2.53,0,0,0,75,69.61ZM19.83,33.06,49.18,50a8.67,8.67,0,0,0,13-7.49V8.63a8.64,8.64,0,0,0-17.28,0v19L28.46,18.1a8.64,8.64,0,1,0-8.63,15ZM84.25,51.13a8.57,8.57,0,0,0,5-1.13l29.34-16.94a8.64,8.64,0,1,0-8.63-15L93.53,27.59v-19a8.64,8.64,0,0,0-17.28,0V42.51A8.64,8.64,0,0,0,84.25,51.13ZM54.19,88a8.49,8.49,0,0,0-5,1.13L19.83,106a8.64,8.64,0,1,0,8.63,15l16.44-9.48v19a8.64,8.64,0,1,0,17.28,0V96.56A8.63,8.63,0,0,0,54.19,88Zm-8-15.87a8.45,8.45,0,0,0,.39-2.81,9,9,0,0,0-.31-2,8.56,8.56,0,0,0-4-5.18L13,45.11a8.64,8.64,0,0,0-8.64,15l16.39,9.48L4.32,79A8.64,8.64,0,0,0,13,94L42.29,77A8.54,8.54,0,0,0,46.23,72.08Zm364-50.63h-1.43a18.9,18.9,0,0,0-6,.86,10.92,10.92,0,0,0-4.92,3.2h0A13,13,0,0,0,395.07,31a29,29,0,0,0-.8,7.12v5.18h-5.71A3.55,3.55,0,0,0,385,46.77a3.84,3.84,0,0,0,1,2.67,3.92,3.92,0,0,0,2.56,1.17h5.67V92.85a3.59,3.59,0,0,0,1.08,2.55,3.78,3.78,0,0,0,2.61,1,3.56,3.56,0,0,0,3.51-3.58V50.61h6.14a3.87,3.87,0,0,0,2.55-1.14,3.72,3.72,0,0,0,1.08-2.63V46.7a3.55,3.55,0,0,0-3.59-3.45h-6.18V38.09a21.14,21.14,0,0,1,.62-5.23,6.33,6.33,0,0,1,1.19-2.52A4.09,4.09,0,0,1,405,29.26a11.84,11.84,0,0,1,3.62-.45h.19l.28,0,.33,0h.81a3.68,3.68,0,1,0,0-7.36Zm126.6,27.33a3.68,3.68,0,0,0,1.11-2.6,3.42,3.42,0,0,0-1.12-2.51h0l0,0,0,0h0a3.5,3.5,0,0,0-5.06,0L503.49,71.19V24.9a3.67,3.67,0,0,0-3.72-3.62,3.6,3.6,0,0,0-2.54,1.07,3.67,3.67,0,0,0-1.07,2.55V92.66a3.65,3.65,0,0,0,3.61,3.61,3.67,3.67,0,0,0,3.72-3.61V81.48l9.21-9.19,18.76,22.63a2.91,2.91,0,0,0,1.3,1.07,4.5,4.5,0,0,0,1.54.28,3.79,3.79,0,0,0,2.36-.77l.05,0,0,0a3.81,3.81,0,0,0,1.18-2.73,3.76,3.76,0,0,0-.89-2.4h0l-19.1-23.21,18.9-18.29Zm-51-4.66a3.61,3.61,0,0,1,1.08,2.59V92.66a3.64,3.64,0,0,1-3.61,3.61,3.67,3.67,0,0,1-2.55-1.07,3.58,3.58,0,0,1-1.07-2.54V88.18a24.19,24.19,0,0,1-35.91.22,27.53,27.53,0,0,1,0-37.43,24.33,24.33,0,0,1,35.91.12V46.71a3.62,3.62,0,0,1,1.09-2.59,3.7,3.7,0,0,1,5.06,0Zm-6.15,25.57a20.2,20.2,0,0,0-5.33-13.82,17,17,0,0,0-25.33,0,20.22,20.22,0,0,0-5.36,13.82A20,20,0,0,0,449,83.44a17.18,17.18,0,0,0,25.35,0A20.07,20.07,0,0,0,479.68,69.69ZM188.8,68.4a87.27,87.27,0,0,0-9.53-3.49,65.15,65.15,0,0,1-8.33-3,8.09,8.09,0,0,1-2.52-1.92,3.57,3.57,0,0,1-.86-2.39,5.72,5.72,0,0,1,1-3.35A9.78,9.78,0,0,1,173.06,51a14.64,14.64,0,0,1,5.12-1.06,14.15,14.15,0,0,1,8.68,2.79c1,.71,1.82,1.44,2.6,2a6.25,6.25,0,0,0,1.22.8,3.16,3.16,0,0,0,1.43.38,2.56,2.56,0,0,0,1-.2,3.1,3.1,0,0,0,.88-.55,3,3,0,0,0,.65-.88,2.58,2.58,0,0,0,.21-1,3.81,3.81,0,0,0-.5-1.81,11,11,0,0,0-2.45-2.9,24.41,24.41,0,0,0-6-3.78,17.66,17.66,0,0,0-7-1.71c-5.37,0-9.85,1.22-13.11,3.46a13.77,13.77,0,0,0-4.24,4.22,13.59,13.59,0,0,0-1.75,6.81v.38a10.83,10.83,0,0,0,2.27,6.83c2.13,2.68,5.28,4.29,8.37,5.43s6.16,1.82,8.11,2.47a39.25,39.25,0,0,1,7.78,3.21A9.17,9.17,0,0,1,188.83,78a4.71,4.71,0,0,1,.9,2.71v.08a6.27,6.27,0,0,1-1.21,3.78,10.62,10.62,0,0,1-5,3.37,17.39,17.39,0,0,1-5.37,1,21.56,21.56,0,0,1-10.09-2.26c-1.14-.57-2.06-1.13-2.9-1.61-.41-.22-.8-.43-1.21-.6a3.43,3.43,0,0,0-1.3-.27,2.48,2.48,0,0,0-.91.17,2.36,2.36,0,0,0-.79.52,3.67,3.67,0,0,0-.79,1,2.77,2.77,0,0,0-.28,1.23,3.54,3.54,0,0,0,.64,1.94,9.89,9.89,0,0,0,2.54,2.36,31.31,31.31,0,0,0,4,2.21,28.9,28.9,0,0,0,11.09,2.5h0c5.15,0,9.61-1.19,13.36-4h0a14.37,14.37,0,0,0,5.95-11.51,12.6,12.6,0,0,0-1.64-6.48A15.53,15.53,0,0,0,188.8,68.4ZM425.17,21.28a3.62,3.62,0,0,0-2.54,1.07,3.58,3.58,0,0,0-1.07,2.55V92.66a3.54,3.54,0,0,0,1.07,2.54,3.67,3.67,0,0,0,6.26-2.54V24.9A3.67,3.67,0,0,0,425.17,21.28ZM591.56,68v.36a3.31,3.31,0,0,1-1.13,2.49,3.78,3.78,0,0,1-2.5.92H547.37c1,9.9,8.93,17.2,18.37,17.28h2.39A15.93,15.93,0,0,0,577,86.18a22,22,0,0,0,6.63-7,3.31,3.31,0,0,1,1.34-1.29,3.43,3.43,0,0,1,1.69-.43,3.63,3.63,0,0,1,1.84.5l0,0,0,0a3.91,3.91,0,0,1,1.65,3.14,3.66,3.66,0,0,1-.51,1.87v0h0a30.45,30.45,0,0,1-9,9.27,23,23,0,0,1-12.51,3.91H565.7a25.46,25.46,0,0,1-18.19-7.87A26.71,26.71,0,0,1,540,69.79a27.09,27.09,0,0,1,7.54-18.86,25.39,25.39,0,0,1,18.33-7.81,25,25,0,0,1,17.57,7.18,27.48,27.48,0,0,1,8.07,17.63Zm-7.92-3.42A18.46,18.46,0,0,0,565.9,50.3a18.67,18.67,0,0,0-18,14.26ZM227.34,43.21a21.77,21.77,0,0,0-14.68,5.73V46.83a3.7,3.7,0,0,0-1-2.53,3.48,3.48,0,0,0-2.51-1.09,3.57,3.57,0,0,0-3.62,3.62V93.74l.15.15v0a1.85,1.85,0,0,0,.24.49,3.89,3.89,0,0,0,2.3,1.82l.15,0h.78a3.68,3.68,0,0,0,1.54-.35A3.14,3.14,0,0,0,211.8,95h0s.05-.09.1-.13,0,0,0,0a3.26,3.26,0,0,0,.45-.74,5.35,5.35,0,0,0,.22-.75l0-.13V65a15,15,0,0,1,4.42-10.32A14.55,14.55,0,0,1,241.92,65V92.66a3.63,3.63,0,0,0,6.15,2.59,3.59,3.59,0,0,0,1.08-2.59V65A21.87,21.87,0,0,0,227.34,43.21ZM299.22,51a27.43,27.43,0,0,1,0,37.37,24.18,24.18,0,0,1-35.76,0,27.34,27.34,0,0,1,0-37.37,24.23,24.23,0,0,1,35.76,0Zm.1,18.69A20.17,20.17,0,0,0,294,55.91a16.93,16.93,0,0,0-25.3,0,20.17,20.17,0,0,0-5.36,13.78,20,20,0,0,0,5.36,13.71,17,17,0,0,0,25.3,0A20,20,0,0,0,299.32,69.69Zm78-26.17h0a3.29,3.29,0,0,0-1.3-.27,3.72,3.72,0,0,0-3.39,2.22v0l-13.8,37.78L348.19,57.92h0a3.63,3.63,0,0,0-1.44-1.63,3.93,3.93,0,0,0-2.07-.59,3.79,3.79,0,0,0-3.41,2.22h0L330.58,83.27,316.7,45.5h0a3.19,3.19,0,0,0-1.32-1.68,3.72,3.72,0,0,0-2-.59,3.58,3.58,0,0,0-1.36.27h0l0,0a3.62,3.62,0,0,0-1.83,4.63h0L327.2,94v0a3.58,3.58,0,0,0,.6,1,3,3,0,0,0,.79.6,2.22,2.22,0,0,0,.28.21,1.63,1.63,0,0,0,.51.19,3.79,3.79,0,0,0,1.25.24,3.54,3.54,0,0,0,1.91-.61,3.34,3.34,0,0,0,1.28-1.59l.05,0,10.79-25.8,10.81,25.7h0a3.51,3.51,0,0,0,1.2,1.6,3.8,3.8,0,0,0,1.77.74h.45a3.3,3.3,0,0,0,1.21-.22,4,4,0,0,0,.92-.51,4.27,4.27,0,0,0,1.3-1.73v0l17-45.63a3.57,3.57,0,0,0-1.93-4.63Z">
 </path>
</svg>
