<?xml version="1.0" encoding="UTF-8"?>
<svg enable-background="new 0 0 500.002 241.621" version="1.1" viewBox="0 0 439.2 212.3" xml:space="preserve" xmlns="http://www.w3.org/2000/svg" xmlns:cc="http://creativecommons.org/ns#" xmlns:dc="http://purl.org/dc/elements/1.1/" xmlns:rdf="http://www.w3.org/1999/02/22-rdf-syntax-ns#"><title>Equinix logo</title><desc>A data centre company based in Redwood City, California, United States</desc><metadata><rdf:RDF><cc:Work rdf:about=""><dc:format>image/svg+xml</dc:format><dc:type rdf:resource="http://purl.org/dc/dcmitype/StillImage"/><dc:title/></cc:Work></rdf:RDF></metadata>
<path d="m302.1 28.78v53.29l-12.18 4.188v-61.67l-36.54-12.81v87.3l-12.06 4.188v-95.68l-18.27-6.471-18.27 6.471v95.68l-12.18-4.188v-87.3l-36.42 12.81v61.67l-12.18-4.188v-53.29l-12.18 4.188v57.73l36.42 12.69v-70.17l12.18-4.313v78.8l36.54 12.69v-104.2l6.094-2.158 6.09 2.158v104.2l36.42-12.69v-78.8l12.18 4.313v70.17l36.54-12.69v-57.73z" style="fill:#ec1e27"/><path d="m6.598 188.6h21.57v-5.837h-21.57v-12.69h32.23v-5.964h-38.83v44.79h39.97v-5.71h-33.37z"/><path d="m177.4 191.1c0 7.994-5.328 13.32-13.2 13.32-7.615 0-12.44-5.457-12.44-13.32v-26.9h-6.471v27.15c0 12.18 8.882 18.91 18.91 18.91 14.72 0 19.54-10.15 19.54-18.91v-27.15h-6.343z"/><path d="m219.9 208.9h6.345v-44.79h-6.345z"/><path d="m303 199.2-31.72-35.15h-6.347v44.79h6.347v-35.28l31.85 35.28h6.343v-44.79h-6.471z"/><path d="m348.5 208.9h6.472v-44.79h-6.472z"/><path d="m417.4 184.6 18.65-20.56h-7.867l-14.85 16.12-14.34-16.12h-8.501l18.02 20.56-22.46 24.24h8.249l18.4-19.92 17.64 19.92h8.882z"/><path d="m106.1 186.5c0 6.345-2.158 10.41-5.837 13.96-3.426-4.061-3.426-4.061-3.426-4.061h-7.486c6.09 6.979 6.09 6.979 6.09 6.979-1.52 0.7614-4.189 1.269-6.343 1.396-9.516 0-17.13-7.74-17.13-18.27v-0.1268c0-10.79 7.105-18.27 16.75-18.4 9.645 0 17.38 7.615 17.38 18.27zm-17.26-24.24c-13.33 0.1285-23.61 10.15-23.61 24.36v0.1268c0 13.96 10.54 23.86 23.73 23.73 3.426 0 7.486-0.8883 10.53-2.411l3.555 4.187h7.486l-6.343-7.36c5.204-3.934 8.501-10.53 8.501-18.65v-0.1272c0-13.96-10.53-23.98-23.85-23.86"/><path d="m335.9 78.12v-3.169h2.287c1.268 0 2.03 0.6338 2.03 1.649 0 0.8865-0.7623 1.52-2.03 1.52zm-2.788 5.837h2.788v-3.55h1.653c2.535 3.55 2.535 3.55 2.535 3.55h3.302c-2.921-4.06-2.921-4.06-2.921-4.06 1.525-0.5054 2.54-1.649 2.54-3.55 0-2.54-1.906-3.807-4.57-3.807h-5.328zm4.441 4.441c-5.456 0-9.645-4.441-9.645-9.769v-0.1285c0-5.328 4.188-9.769 9.645-9.769 5.58 0 9.769 4.313 9.769 9.769 0 5.332-4.189 9.897-9.769 9.897m0 1.143c6.214 0 11.04-5.075 11.04-11.04 0-6.09-4.822-11.04-11.04-11.04-6.094 0-10.92 5.075-10.92 11.04v0.1285c0 5.966 4.822 10.91 10.92 10.91" style="fill:#ec1e27"/></svg>
