<svg version="1.2" xmlns="http://www.w3.org/2000/svg" viewBox="0 0 1565 1559" width="1565" height="1559"><defs><clipPath clipPathUnits="userSpaceOnUse" id="cp1"><path d="m0.24 0h6893.02v1558.22h-6893.02z"/></clipPath></defs><style>.a{fill:#29b5e8}</style><g clip-path="url(#cp1)"><path fill-rule="evenodd" class="a" d="m522.6 807.6c-7 22.5-22.2 42.5-44.5 55.2l-331.4 189.9c-46.8 26.7-106.4 10.9-133.3-35.3-27-46.5-11.1-105.5 35.7-132.3l185.2-105.9-185.2-106.2c-46.8-26.8-62.8-85.9-35.7-132.1 26.9-46.3 86.5-62.2 133.3-35.5l331.4 189.7c23.3 13.4 38.8 34.5 45.4 58.1 2.2 7.6 3.2 15.2 3.5 22.9 0.3 10.5-1.1 21.2-4.4 31.5zm89.9 177.8c50.5 3.6 90.3 45.4 90.3 96.4v379.6c0 53.5-43.8 96.8-97.5 96.8-54 0-97.7-43.3-97.7-96.8v-212.4l-185.8 106.3c-46.6 26.9-106.1 11-133.2-35.2-26.9-46.4-11-105.7 35.7-132.5l331.6-189.6c17.8-10.3 37.6-14.2 56.6-12.6zm339.7-412.6c-50.6-3.7-90.4-45.6-90.4-96.5v-379.6c0-53.4 43.6-96.7 97.6-96.7 54 0 97.7 43.3 97.7 96.7v212.4l185.7-106.4c46.6-26.7 106.2-10.9 133.2 35.4 26.8 46.5 11 105.6-35.7 132.3l-331.6 189.8c-17.8 10.2-37.6 14.2-56.5 12.7zm-727.9-202.5c-46.7-26.7-62.6-85.8-35.7-132.3 27.1-46.3 86.7-62.1 133.2-35.4l185.8 106.4v-212.4c0-53.4 43.7-96.7 97.7-96.7 53.7 0 97.5 43.3 97.5 96.7v379.6c0 50.9-39.8 92.8-90.3 96.5-19 1.6-38.8-2.4-56.6-12.6zm595.5 582.3c-3.9 4-11.5 7.3-17.3 7.3h-40.5c-5.6 0-13.3-3.3-17.3-7.3l-137.7-136.5c-4-3.8-7.2-11.5-7.2-17v-40.2c0-5.6 3.2-13.3 7.2-17.2l137.7-136.6c4-3.9 11.7-7.1 17.3-7.1h40.5c5.7 0 13.4 3.2 17.3 7.1l137.9 136.6c3.9 3.9 7.1 11.6 7.1 17.2v40.2c0 5.5-3.2 13.2-7.1 17zm27.6-174.3c0-5.5-3.3-13.2-7.3-17.3l-39.9-39.4c-3.9-3.9-11.7-7.1-17.2-7.1h-1.6c-5.6 0-13.3 3.2-17.2 7.1l-39.9 39.4c-4 4.1-7 11.8-7 17.3v1.6c0 5.4 3 13 7 17l39.9 39.4c4 4 11.6 7.2 17.2 7.2h1.6c5.5 0 13.3-3.2 17.2-7.2l39.9-39.4c4-4 7.3-11.6 7.3-17zm492.8 409.2c46.7 26.7 62.5 86.1 35.7 132.4-26.9 46.3-86.6 62.2-133.2 35.3l-185.7-106.3v212.3c0 53.6-43.6 96.9-97.6 96.9-54.1 0-97.6-43.3-97.6-96.9v-379.6c0-50.9 39.7-92.7 90.3-96.3 19-1.7 38.7 2.3 56.5 12.6zm-9.9-408.5l185.2 105.9c46.8 26.8 62.8 85.9 35.7 132.3-27 46.2-86.7 62.1-133.2 35.4l-331.6-189.9c-22.2-12.8-37.5-32.8-44.4-55.3-3.2-10.3-4.7-20.9-4.3-31.5q0.2-11.4 3.4-22.8c6.6-23.6 22.2-44.8 45.3-58.1l331.6-189.7c46.5-26.7 106.2-10.9 133.2 35.4 27.1 46.3 11.1 105.4-35.7 132.1z"/></g></svg>
