<svg width="600" height="1500" viewBox="0 0 600 1500" fill="none" xmlns="http://www.w3.org/2000/svg">
  <defs>
    <filter id="shadow" x="-10%" y="-10%" width="120%" height="120%">
      <feDropShadow dx="0" dy="2" stdDeviation="3" flood-opacity="0.18"/>
    </filter>
    <filter id="dbShadow" x="-5%" y="-5%" width="110%" height="115%">
      <feDropShadow dx="0" dy="3" stdDeviation="4" flood-opacity="0.25"/>
    </filter>
    <linearGradient id="panelGrad" x1="0" y1="0" x2="0" y2="1">
      <stop offset="0%" stop-color="#0A4A5E"/>
      <stop offset="100%" stop-color="#073B4D"/>
    </linearGradient>
    <linearGradient id="titleBarGrad" x1="0" y1="0" x2="0" y2="1">
      <stop offset="0%" stop-color="#0A5570"/>
      <stop offset="100%" stop-color="#034A61"/>
    </linearGradient>
  </defs>

  <!-- ============ STEP 1: Build your LLM Application ============ -->
  <g id="step1">
    <rect x="0" y="0" width="600" height="300" rx="8" fill="url(#panelGrad)"/>

    <!-- Inner title bar -->
    <rect x="20" y="20" width="560" height="48" rx="4" fill="url(#titleBarGrad)"/>
    <text x="38" y="52" font-family="system-ui, -apple-system, 'Segoe UI', sans-serif" font-size="30" font-weight="300" fill="#DCB1FD">1</text>
    <text x="68" y="50" font-family="system-ui, -apple-system, 'Segoe UI', sans-serif" font-size="17" font-weight="500" fill="#FFFFFF">Build your LLM Application</text>

    <!-- Chat bubbles (horizontally centered) -->
    <g transform="translate(130, 86)">
      <rect x="0" y="0" width="120" height="32" rx="6" fill="#0FB5AE"/>
      <polygon points="14,32 20,42 26,32" fill="#0FB5AE"/>

      <rect x="200" y="10" width="140" height="36" rx="6" fill="#DCB1FD"/>
      <polygon points="310,46 316,56 322,46" fill="#DCB1FD"/>

      <rect x="0" y="56" width="110" height="30" rx="6" fill="#0FB5AE"/>
      <polygon points="14,86 20,96 26,86" fill="#0FB5AE"/>

      <rect x="190" y="66" width="150" height="34" rx="6" fill="#DCB1FD"/>
      <polygon points="310,100 316,110 322,100" fill="#DCB1FD"/>

      <rect x="0" y="112" width="130" height="32" rx="6" fill="#0FB5AE"/>
      <polygon points="14,144 20,154 26,144" fill="#0FB5AE"/>

      <rect x="195" y="122" width="145" height="34" rx="6" fill="#DCB1FD"/>
      <polygon points="310,156 316,166 322,156" fill="#DCB1FD"/>
    </g>

    <!-- Labels -->
    <text x="180" y="268" font-family="system-ui, -apple-system, 'Segoe UI', sans-serif" font-size="14" font-style="italic" fill="#0FB5AE">Human</text>
    <text x="370" y="268" font-family="system-ui, -apple-system, 'Segoe UI', sans-serif" font-size="14" font-style="italic" fill="#DCB1FD">AI Agent</text>
  </g>

  <!-- ============ STEP 2: Connect a database ============ -->
  <g id="step2">
    <rect x="0" y="315" width="600" height="240" rx="8" fill="url(#panelGrad)"/>

    <!-- Inner title bar -->
    <rect x="20" y="335" width="560" height="48" rx="4" fill="url(#titleBarGrad)"/>
    <text x="38" y="368" font-family="system-ui, -apple-system, 'Segoe UI', sans-serif" font-size="30" font-weight="300" fill="#DCB1FD">2</text>
    <text x="72" y="365" font-family="system-ui, -apple-system, 'Segoe UI', sans-serif" font-size="16" font-weight="500" fill="#FFFFFF">Connect a database for logging traces and evaluations</text>

    <!-- Agent icon -->
    <g transform="translate(140, 415)">
      <rect x="0" y="0" width="60" height="50" rx="8" fill="#DCB1FD"/>
      <circle cx="18" cy="20" r="5" fill="#073B4D"/>
      <circle cx="42" cy="20" r="5" fill="#073B4D"/>
      <rect x="14" y="34" width="32" height="4" rx="2" fill="#073B4D"/>
      <line x1="30" y1="0" x2="30" y2="-10" stroke="#DCB1FD" stroke-width="2"/>
      <circle cx="30" cy="-14" r="4" fill="#DCB1FD"/>
      <text x="30" y="70" font-family="system-ui, -apple-system, 'Segoe UI', sans-serif" font-size="11" fill="#DCB1FD" text-anchor="middle">Agent</text>
    </g>

    <!-- Arrow -->
    <g transform="translate(210, 440)">
      <line x1="0" y1="0" x2="60" y2="0" stroke="#0FB5AE" stroke-width="2" stroke-dasharray="6,3"/>
      <polygon points="60,-4 68,0 60,4" fill="#0FB5AE"/>
    </g>

    <!-- Database cylinder -->
    <g transform="translate(280, 400)" filter="url(#dbShadow)">
      <ellipse cx="55" cy="85" rx="48" ry="12" fill="#021E28"/>
      <rect x="7" y="12" width="96" height="73" fill="#034A61"/>
      <ellipse cx="55" cy="85" rx="48" ry="12" fill="#045A78"/>
      <ellipse cx="55" cy="12" rx="48" ry="12" fill="#067D9E"/>
      <ellipse cx="55" cy="12" rx="38" ry="8" fill="none" stroke="#0FB5AE" stroke-width="0.5" opacity="0.3"/>
    </g>

    <!-- DB labels -->
    <g transform="translate(400, 405)">
      <rect x="0" y="0" width="50" height="18" rx="3" fill="#034A61"/>
      <text x="25" y="13" font-family="system-ui, sans-serif" font-size="8" fill="#9CA3AF" text-anchor="middle">SQLite</text>
      <rect x="0" y="22" width="58" height="18" rx="3" fill="#034A61"/>
      <text x="29" y="35" font-family="system-ui, sans-serif" font-size="8" fill="#9CA3AF" text-anchor="middle">Postgres</text>
      <rect x="0" y="44" width="60" height="18" rx="3" fill="#034A61"/>
      <text x="30" y="57" font-family="system-ui, sans-serif" font-size="8" fill="#9CA3AF" text-anchor="middle">Snowflake</text>
      <rect x="0" y="66" width="44" height="18" rx="3" fill="#034A61"/>
      <text x="22" y="79" font-family="system-ui, sans-serif" font-size="8" fill="#9CA3AF" text-anchor="middle">MySQL</text>
      <circle cx="12" cy="96" r="3" fill="#9CA3AF" opacity="0.5"/>
      <circle cx="22" cy="96" r="3" fill="#9CA3AF" opacity="0.5"/>
      <circle cx="32" cy="96" r="3" fill="#9CA3AF" opacity="0.5"/>
    </g>
  </g>

  <!-- ============ STEP 3: Add metrics ============ -->
  <g id="step3">
    <rect x="0" y="570" width="600" height="290" rx="8" fill="url(#panelGrad)"/>

    <!-- Dashboard mockup -->
    <g transform="translate(30, 582)" filter="url(#shadow)">
      <rect x="0" y="0" width="540" height="200" rx="5" fill="#FFFFFF"/>

      <!-- Window chrome -->
      <rect x="0" y="0" width="540" height="22" rx="5" fill="#F3F4F6"/>
      <rect x="0" y="11" width="540" height="11" fill="#F3F4F6"/>
      <circle cx="14" cy="11" r="4" fill="#EF4444"/>
      <circle cx="28" cy="11" r="4" fill="#F59E0B"/>
      <circle cx="42" cy="11" r="4" fill="#22C55E"/>

      <!-- Nav sidebar -->
      <rect x="0" y="22" width="80" height="178" fill="#073B4D"/>
      <rect x="8" y="32" width="64" height="14" rx="2" fill="#0FB5AE" opacity="0.3"/>
      <rect x="8" y="52" width="64" height="14" rx="2" fill="#0FB5AE"/>
      <text x="14" y="63" font-family="system-ui, sans-serif" font-size="7" fill="#FFFFFF">Evaluations</text>

      <!-- Table header -->
      <rect x="88" y="34" width="444" height="16" fill="#F9FAFB"/>
      <text x="96" y="46" font-family="system-ui, sans-serif" font-size="7" fill="#6B7280">User Input</text>
      <text x="220" y="46" font-family="system-ui, sans-serif" font-size="7" fill="#6B7280">Response</text>
      <text x="370" y="46" font-family="system-ui, sans-serif" font-size="7" fill="#6B7280">Latency</text>
      <text x="430" y="46" font-family="system-ui, sans-serif" font-size="7" fill="#6B7280">Relevance</text>

      <!-- Table rows -->
      <line x1="88" y1="50" x2="532" y2="50" stroke="#E5E7EB" stroke-width="0.3"/>
      <rect x="88" y="50" width="444" height="20" fill="#FFFFFF"/>
      <rect x="88" y="70" width="444" height="20" fill="#F9FAFB"/>
      <rect x="88" y="90" width="444" height="20" fill="#FFFFFF"/>
      <rect x="88" y="110" width="444" height="20" fill="#F9FAFB"/>
      <rect x="88" y="130" width="444" height="20" fill="#FFFFFF"/>
      <rect x="88" y="150" width="444" height="20" fill="#F9FAFB"/>
      <rect x="88" y="170" width="444" height="30" fill="#FFFFFF"/>

      <!-- Row placeholders -->
      <rect x="96" y="58" width="100" height="4" rx="1" fill="#E5E7EB"/>
      <rect x="220" y="58" width="80" height="4" rx="1" fill="#E5E7EB"/>
      <rect x="96" y="78" width="90" height="4" rx="1" fill="#E5E7EB"/>
      <rect x="220" y="78" width="75" height="4" rx="1" fill="#E5E7EB"/>
      <rect x="96" y="98" width="105" height="4" rx="1" fill="#E5E7EB"/>
      <rect x="220" y="98" width="85" height="4" rx="1" fill="#E5E7EB"/>
      <rect x="96" y="118" width="85" height="4" rx="1" fill="#E5E7EB"/>
      <rect x="220" y="118" width="70" height="4" rx="1" fill="#E5E7EB"/>
      <rect x="96" y="138" width="95" height="4" rx="1" fill="#E5E7EB"/>
      <rect x="220" y="138" width="90" height="4" rx="1" fill="#E5E7EB"/>
      <rect x="96" y="158" width="88" height="4" rx="1" fill="#E5E7EB"/>
      <rect x="220" y="158" width="72" height="4" rx="1" fill="#E5E7EB"/>
      <rect x="96" y="180" width="100" height="4" rx="1" fill="#E5E7EB"/>
      <rect x="220" y="180" width="65" height="4" rx="1" fill="#E5E7EB"/>

      <!-- Latency values -->
      <text x="374" y="63" font-family="monospace" font-size="6" fill="#9CA3AF">1.2s</text>
      <text x="374" y="83" font-family="monospace" font-size="6" fill="#9CA3AF">0.8s</text>
      <text x="374" y="103" font-family="monospace" font-size="6" fill="#9CA3AF">2.1s</text>
      <text x="374" y="123" font-family="monospace" font-size="6" fill="#9CA3AF">0.9s</text>
      <text x="374" y="143" font-family="monospace" font-size="6" fill="#9CA3AF">1.5s</text>
      <text x="374" y="163" font-family="monospace" font-size="6" fill="#9CA3AF">3.4s</text>
      <text x="374" y="185" font-family="monospace" font-size="6" fill="#9CA3AF">1.1s</text>

      <!-- Relevance badges -->
      <rect x="430" y="55" width="32" height="11" rx="3" fill="#22C55E"/>
      <rect x="467" y="55" width="16" height="11" rx="3" fill="#22C55E"/>
      <rect x="430" y="75" width="32" height="11" rx="3" fill="#22C55E"/>
      <rect x="467" y="75" width="16" height="11" rx="3" fill="#F59E0B"/>
      <rect x="430" y="95" width="32" height="11" rx="3" fill="#F59E0B"/>
      <rect x="467" y="95" width="16" height="11" rx="3" fill="#22C55E"/>
      <rect x="430" y="115" width="32" height="11" rx="3" fill="#22C55E"/>
      <rect x="467" y="115" width="16" height="11" rx="3" fill="#22C55E"/>
      <rect x="430" y="135" width="32" height="11" rx="3" fill="#22C55E"/>
      <rect x="467" y="135" width="16" height="11" rx="3" fill="#22C55E"/>
      <rect x="430" y="155" width="32" height="11" rx="3" fill="#EF4444"/>
      <rect x="467" y="155" width="16" height="11" rx="3" fill="#F59E0B"/>
      <rect x="430" y="177" width="32" height="11" rx="3" fill="#22C55E"/>
      <rect x="467" y="177" width="16" height="11" rx="3" fill="#22C55E"/>
    </g>

    <!-- Inner title bar at BOTTOM -->
    <rect x="20" y="795" width="560" height="50" rx="4" fill="url(#titleBarGrad)"/>
    <text x="38" y="828" font-family="system-ui, -apple-system, 'Segoe UI', sans-serif" font-size="28" font-weight="300" fill="#DCB1FD">3</text>
    <text x="70" y="824" font-family="system-ui, -apple-system, 'Segoe UI', sans-serif" font-size="15" font-weight="500" fill="#FFFFFF">Add metrics and evaluate the quality of your application responses</text>
  </g>

  <!-- ============ STEP 4: Explore traces ============ -->
  <g id="step4">
    <rect x="0" y="875" width="600" height="260" rx="8" fill="url(#panelGrad)"/>

    <!-- Inner title bar at TOP -->
    <rect x="20" y="895" width="560" height="48" rx="4" fill="url(#titleBarGrad)"/>
    <text x="38" y="928" font-family="system-ui, -apple-system, 'Segoe UI', sans-serif" font-size="30" font-weight="300" fill="#DCB1FD">4</text>
    <text x="72" y="925" font-family="system-ui, -apple-system, 'Segoe UI', sans-serif" font-size="16" font-weight="500" fill="#FFFFFF">Explore traces and evaluation results across different app versions</text>

    <!-- Metric indicators cylinder -->
    <g transform="translate(200, 960)" filter="url(#dbShadow)">
      <ellipse cx="100" cy="140" rx="88" ry="22" fill="#021E28"/>
      <rect x="12" y="22" width="176" height="118" fill="#034A61"/>
      <ellipse cx="100" cy="140" rx="88" ry="22" fill="#045A78"/>
      <ellipse cx="100" cy="22" rx="88" ry="22" fill="#067D9E"/>

      <rect x="30" y="48" width="24" height="16" rx="3" fill="#DCB1FD"/>
      <circle cx="72" cy="56" r="6" fill="#22C55E"/>
      <circle cx="90" cy="56" r="6" fill="#22C55E"/>
      <circle cx="108" cy="56" r="6" fill="#22C55E"/>
      <circle cx="126" cy="56" r="6" fill="#22C55E"/>
      <circle cx="144" cy="56" r="6" fill="#22C55E"/>

      <rect x="30" y="74" width="24" height="16" rx="3" fill="#0FB5AE"/>
      <circle cx="72" cy="82" r="6" fill="#22C55E"/>
      <circle cx="90" cy="82" r="6" fill="#EF4444"/>
      <circle cx="108" cy="82" r="6" fill="#22C55E"/>
      <circle cx="126" cy="82" r="6" fill="#22C55E"/>
      <circle cx="144" cy="82" r="6" fill="#22C55E"/>

      <rect x="30" y="100" width="24" height="16" rx="3" fill="#DCB1FD"/>
      <circle cx="72" cy="108" r="6" fill="#EF4444"/>
      <circle cx="90" cy="108" r="6" fill="#EF4444"/>
      <circle cx="108" cy="108" r="6" fill="#EF4444"/>
      <circle cx="126" cy="108" r="6" fill="#EF4444"/>
      <circle cx="144" cy="108" r="6" fill="#22C55E"/>
    </g>
  </g>

  <!-- ============ STEP 5: Iterate and select ============ -->
  <g id="step5">
    <rect x="0" y="1150" width="600" height="350" rx="8" fill="url(#panelGrad)"/>

    <!-- Version comparison cards (vertically centered) -->
    <g transform="translate(30, 1162)">
      <!-- Card v1 (dimmer) -->
      <g opacity="0.6">
        <rect x="0" y="0" width="250" height="235" rx="6" fill="#034A61" stroke="#045A78" stroke-width="1"/>
        <rect x="0" y="0" width="250" height="30" rx="6" fill="#045A78"/>
        <rect x="0" y="15" width="250" height="15" fill="#045A78"/>
        <text x="125" y="21" font-family="system-ui, -apple-system, 'Segoe UI', sans-serif" font-size="13" font-weight="600" fill="#FFFFFF" text-anchor="middle">App v1</text>

        <text x="16" y="56" font-family="system-ui, sans-serif" font-size="10" fill="#9CA3AF">LLM</text>
        <rect x="80" y="45" width="110" height="16" rx="8" fill="#073B4D"/>
        <text x="135" y="57" font-family="system-ui, sans-serif" font-size="9" fill="#DCB1FD" text-anchor="middle">gpt-5-mini</text>

        <text x="16" y="82" font-family="system-ui, sans-serif" font-size="10" fill="#9CA3AF">Search</text>
        <rect x="80" y="71" width="80" height="16" rx="8" fill="#073B4D"/>
        <text x="120" y="83" font-family="system-ui, sans-serif" font-size="9" fill="#DCB1FD" text-anchor="middle">Semantic</text>

        <text x="16" y="108" font-family="system-ui, sans-serif" font-size="10" fill="#9CA3AF">Tools</text>
        <rect x="80" y="97" width="65" height="16" rx="8" fill="#073B4D"/>
        <text x="112" y="109" font-family="system-ui, sans-serif" font-size="9" fill="#DCB1FD" text-anchor="middle">ReAct</text>

        <text x="16" y="134" font-family="system-ui, sans-serif" font-size="10" fill="#9CA3AF">Prompt</text>
        <rect x="80" y="123" width="40" height="16" rx="8" fill="#073B4D"/>
        <text x="100" y="135" font-family="system-ui, sans-serif" font-size="9" fill="#DCB1FD" text-anchor="middle">v1</text>

        <line x1="16" y1="152" x2="234" y2="152" stroke="#045A78" stroke-width="0.5"/>
        <text x="16" y="172" font-family="system-ui, sans-serif" font-size="9" fill="#9CA3AF">Relevance</text>
        <rect x="90" y="163" width="60" height="13" rx="3" fill="#F59E0B"/>
        <text x="120" y="174" font-family="system-ui, sans-serif" font-size="8" fill="#FFF" text-anchor="middle">0.64</text>
        <text x="16" y="194" font-family="system-ui, sans-serif" font-size="9" fill="#9CA3AF">Groundedness</text>
        <rect x="108" y="185" width="60" height="13" rx="3" fill="#22C55E"/>
        <text x="138" y="196" font-family="system-ui, sans-serif" font-size="8" fill="#FFF" text-anchor="middle">0.81</text>
        <text x="16" y="218" font-family="system-ui, sans-serif" font-size="9" fill="#9CA3AF">Latency</text>
        <text x="90" y="218" font-family="monospace" font-size="9" fill="#9CA3AF">2.1s</text>
      </g>

      <!-- vs label -->
      <text x="268" y="125" font-family="system-ui, sans-serif" font-size="18" fill="#9CA3AF" text-anchor="middle">vs</text>

      <!-- Card v2 (selected) -->
      <g>
        <rect x="290" y="0" width="250" height="235" rx="6" fill="#034A61" stroke="#0FB5AE" stroke-width="2"/>
        <rect x="290" y="0" width="250" height="30" rx="6" fill="#0A5570"/>
        <rect x="290" y="15" width="250" height="15" fill="#0A5570"/>
        <text x="402" y="21" font-family="system-ui, -apple-system, 'Segoe UI', sans-serif" font-size="13" font-weight="600" fill="#FFFFFF" text-anchor="middle">App v2</text>
        <!-- Checkmark -->
        <circle cx="520" cy="15" r="9" fill="#0FB5AE"/>
        <path d="M516 15 L519 18 L525 12" fill="none" stroke="#FFFFFF" stroke-width="1.5" stroke-linecap="round" stroke-linejoin="round"/>

        <text x="306" y="56" font-family="system-ui, sans-serif" font-size="10" fill="#9CA3AF">LLM</text>
        <rect x="370" y="45" width="110" height="16" rx="8" fill="#073B4D"/>
        <text x="425" y="57" font-family="system-ui, sans-serif" font-size="9" fill="#0FB5AE" text-anchor="middle">claude-4-opus</text>

        <text x="306" y="82" font-family="system-ui, sans-serif" font-size="10" fill="#9CA3AF">Search</text>
        <rect x="370" y="71" width="80" height="16" rx="8" fill="#073B4D"/>
        <text x="410" y="83" font-family="system-ui, sans-serif" font-size="9" fill="#0FB5AE" text-anchor="middle">Hybrid</text>

        <text x="306" y="108" font-family="system-ui, sans-serif" font-size="10" fill="#9CA3AF">Tools</text>
        <rect x="370" y="97" width="96" height="16" rx="8" fill="#073B4D"/>
        <text x="418" y="109" font-family="system-ui, sans-serif" font-size="9" fill="#0FB5AE" text-anchor="middle">Function call</text>

        <text x="306" y="134" font-family="system-ui, sans-serif" font-size="10" fill="#9CA3AF">Prompt</text>
        <rect x="370" y="123" width="40" height="16" rx="8" fill="#073B4D"/>
        <text x="390" y="135" font-family="system-ui, sans-serif" font-size="9" fill="#0FB5AE" text-anchor="middle">v3</text>

        <line x1="306" y1="152" x2="524" y2="152" stroke="#045A78" stroke-width="0.5"/>
        <text x="306" y="172" font-family="system-ui, sans-serif" font-size="9" fill="#9CA3AF">Relevance</text>
        <rect x="380" y="163" width="60" height="13" rx="3" fill="#22C55E"/>
        <text x="410" y="174" font-family="system-ui, sans-serif" font-size="8" fill="#FFF" text-anchor="middle">0.93</text>
        <text x="306" y="194" font-family="system-ui, sans-serif" font-size="9" fill="#9CA3AF">Groundedness</text>
        <rect x="398" y="185" width="60" height="13" rx="3" fill="#22C55E"/>
        <text x="428" y="196" font-family="system-ui, sans-serif" font-size="8" fill="#FFF" text-anchor="middle">0.95</text>
        <text x="306" y="218" font-family="system-ui, sans-serif" font-size="9" fill="#9CA3AF">Latency</text>
        <text x="380" y="218" font-family="monospace" font-size="9" fill="#0FB5AE">1.2s</text>
      </g>
    </g>

    <!-- Inner title bar at BOTTOM -->
    <rect x="20" y="1412" width="560" height="48" rx="4" fill="url(#titleBarGrad)"/>
    <text x="38" y="1444" font-family="system-ui, -apple-system, 'Segoe UI', sans-serif" font-size="30" font-weight="300" fill="#DCB1FD">5</text>
    <text x="72" y="1441" font-family="system-ui, -apple-system, 'Segoe UI', sans-serif" font-size="16" font-weight="500" fill="#FFFFFF">Iterate and select the best version of your app</text>
  </g>
</svg>
